<svg width="48" height="48" viewBox="0 0 48 48" fill="none" xmlns="http://www.w3.org/2000/svg">
<rect x="0.5" y="0.5" width="47" height="47" rx="23.5" stroke="#FF9900"/>
<path d="M18.3164 33V31.1016L24.2227 24.9609C24.8477 24.3047 25.3633 23.7266 25.7695 23.2266C26.1836 22.7188 26.4922 22.2383 26.6953 21.7852C26.9062 21.332 27.0117 20.8516 27.0117 20.3438C27.0117 19.7578 26.875 19.2539 26.6016 18.832C26.3281 18.4102 25.957 18.0859 25.4883 17.8594C25.0195 17.6328 24.4883 17.5195 23.8945 17.5195C23.2695 17.5195 22.7266 17.6484 22.2656 17.9062C21.8047 18.1562 21.4453 18.5156 21.1875 18.9844C20.9375 19.4453 20.8125 19.9883 20.8125 20.6133H18.3047C18.3047 19.5508 18.5469 18.6211 19.0312 17.8242C19.5234 17.0273 20.1953 16.4102 21.0469 15.9727C21.9062 15.5273 22.875 15.3047 23.9531 15.3047C25.0547 15.3047 26.0234 15.5234 26.8594 15.9609C27.6953 16.3984 28.3477 16.9922 28.8164 17.7422C29.2852 18.4844 29.5195 19.3242 29.5195 20.2617C29.5195 20.9102 29.3984 21.543 29.1562 22.1602C28.9219 22.7773 28.5039 23.4688 27.9023 24.2344C27.3086 24.9922 26.4805 25.9062 25.418 26.9766L21.9492 30.6094V30.75H29.8008V33H18.3164Z" fill="#FF9900"/>
</svg>
