<svg width="48" height="48" viewBox="0 0 48 48" fill="none" xmlns="http://www.w3.org/2000/svg">
<rect x="0.5" y="0.5" width="47" height="47" rx="23.5" stroke="#FF9900"/>
<path d="M24.0234 33.2344C22.8438 33.2344 21.7969 33.0352 20.8828 32.6367C19.9688 32.2305 19.2461 31.668 18.7148 30.9492C18.1836 30.2305 17.9023 29.3984 17.8711 28.4531H20.5195C20.5586 28.9688 20.7344 29.4141 21.0469 29.7891C21.3594 30.1641 21.7695 30.457 22.2773 30.668C22.793 30.8711 23.3672 30.9727 24 30.9727C24.6875 30.9727 25.2969 30.8516 25.8281 30.6094C26.3594 30.3672 26.7734 30.0352 27.0703 29.6133C27.375 29.1836 27.5273 28.6875 27.5273 28.125C27.5273 27.5391 27.3789 27.0234 27.082 26.5781C26.7852 26.125 26.3516 25.7734 25.7812 25.5234C25.2109 25.2734 24.5234 25.1484 23.7188 25.1484H22.2305V22.9922H23.7188C24.3594 22.9922 24.9258 22.875 25.418 22.6406C25.9102 22.4062 26.293 22.082 26.5664 21.668C26.8477 21.2539 26.9883 20.7656 26.9883 20.2031C26.9883 19.6641 26.8672 19.1953 26.625 18.7969C26.3828 18.3906 26.043 18.0781 25.6055 17.8594C25.168 17.6328 24.6523 17.5195 24.0586 17.5195C23.4883 17.5195 22.957 17.6211 22.4648 17.8242C21.9727 18.0273 21.5703 18.3203 21.2578 18.7031C20.9531 19.0781 20.793 19.5352 20.7773 20.0742H18.2344C18.2578 19.1289 18.5312 18.3008 19.0547 17.5898C19.5859 16.8711 20.2891 16.3125 21.1641 15.9141C22.0469 15.5078 23.0234 15.3047 24.0938 15.3047C25.2109 15.3047 26.1758 15.5234 26.9883 15.9609C27.8086 16.3906 28.4414 16.9688 28.8867 17.6953C29.332 18.4141 29.5547 19.1992 29.5547 20.0508C29.5547 21.043 29.2812 21.8789 28.7344 22.5586C28.1875 23.2305 27.457 23.6875 26.543 23.9297V24.0586C27.6992 24.2383 28.5938 24.6992 29.2266 25.4414C29.8672 26.1836 30.1875 27.1055 30.1875 28.207C30.1875 29.168 29.918 30.0273 29.3789 30.7852C28.8477 31.543 28.1172 32.1406 27.1875 32.5781C26.2656 33.0156 25.2109 33.2344 24.0234 33.2344Z" fill="#FF9900"/>
</svg>
