<svg width="52" height="52" viewBox="0 0 52 52" fill="none" xmlns="http://www.w3.org/2000/svg">
<rect width="52" height="52" fill="#F5F5F5"/>
<path d="M36.6728 24.1602V36.6707" stroke="#FF9900" stroke-width="1.5" stroke-linecap="round" stroke-linejoin="round"/>
<path d="M16.6638 36.6709H12.6621" stroke="#FF9900" stroke-width="1.5" stroke-linecap="round" stroke-linejoin="round"/>
<path fill-rule="evenodd" clip-rule="evenodd" d="M26.0017 32.6689V32.6689C28.2117 32.6689 30.0033 34.4606 30.0033 36.6706V36.6706C30.0033 37.4073 29.4061 38.0045 28.6694 38.0045H23.3339C22.5972 38.0045 22 37.4073 22 36.6706V36.6706C22 34.4606 23.7916 32.6689 26.0017 32.6689Z" stroke="#FF9900" stroke-width="1.5" stroke-linecap="round" stroke-linejoin="round"/>
<path d="M15.3291 24.1582V36.6714" stroke="#FF9900" stroke-width="1.5" stroke-linecap="round" stroke-linejoin="round"/>
<path d="M35.0049 24.6662V24.6662C36.6624 24.6662 38.0061 23.3225 38.0061 21.665V21.4956C38.0061 20.9518 37.8582 20.4183 37.5779 19.9523L34.7768 15.2903C34.2956 14.4884 33.4297 13.997 32.4945 13.9951H19.5078C18.5713 13.9951 17.7033 14.4862 17.221 15.2889L14.419 19.9523C14.1406 20.4188 13.9944 20.9523 13.9961 21.4956V21.665C13.9961 23.3225 15.3398 24.6662 16.9974 24.6662V24.6662" stroke="#FF9900" stroke-width="1.5" stroke-linecap="round" stroke-linejoin="round"/>
<path d="M39.3396 36.6709H35.3379" stroke="#FF9900" stroke-width="1.5" stroke-linecap="round" stroke-linejoin="round"/>
<path d="M35.0036 24.6658C33.6754 24.6657 32.5051 23.793 32.1261 22.5201C32.1137 22.4617 32.0621 22.4199 32.0023 22.4199C31.9426 22.4199 31.891 22.4617 31.8786 22.5201C31.4996 23.7931 30.3293 24.6658 29.0011 24.6658C27.6729 24.6658 26.5026 23.7931 26.1236 22.5201C26.1112 22.4617 26.0596 22.4199 25.9998 22.4199C25.9401 22.4199 25.8885 22.4617 25.8761 22.5201C25.4971 23.7931 24.3268 24.6658 22.9986 24.6658C21.6704 24.6658 20.5001 23.7931 20.1211 22.5201C20.1087 22.4617 20.0571 22.4199 19.9973 22.4199C19.9376 22.4199 19.886 22.4617 19.8736 22.5201C19.4946 23.793 18.3243 24.6657 16.9961 24.6658" stroke="#FF9900" stroke-width="1.5" stroke-linecap="round" stroke-linejoin="round"/>
<path d="M26.3344 28.6683C26.3342 28.8524 26.1848 29.0015 26.0008 29.0014C25.8167 29.0013 25.6675 28.8521 25.6675 28.6681C25.6674 28.484 25.8164 28.3347 26.0005 28.3344C26.0891 28.3343 26.1741 28.3695 26.2367 28.4321C26.2994 28.4948 26.3345 28.5797 26.3344 28.6683" stroke="#FF9900" stroke-width="1.5" stroke-linecap="round" stroke-linejoin="round"/>
<path d="M30.3364 30.0023C30.3361 30.1864 30.1868 30.3355 30.0027 30.3354C29.8187 30.3353 29.6695 30.1861 29.6694 30.002C29.6693 29.818 29.8184 29.6687 30.0025 29.6684C30.091 29.6683 30.176 29.7035 30.2387 29.7661C30.3013 29.8287 30.3365 29.9137 30.3364 30.0023" stroke="#FF9900" stroke-width="1.5" stroke-linecap="round" stroke-linejoin="round"/>
<path d="M22.3324 30.0023C22.3322 30.1864 22.1829 30.3355 21.9988 30.3354C21.8148 30.3353 21.6656 30.1861 21.6655 30.002C21.6654 29.818 21.8145 29.6687 21.9985 29.6684C22.0871 29.6683 22.1721 29.7035 22.2348 29.7661C22.2974 29.8287 22.3326 29.9137 22.3324 30.0023" stroke="#FF9900" stroke-width="1.5" stroke-linecap="round" stroke-linejoin="round"/>
</svg>
