<svg width="52" height="52" viewBox="0 0 52 52" fill="none" xmlns="http://www.w3.org/2000/svg">
<rect width="52" height="52" fill="#FF9900"/>
<path fill-rule="evenodd" clip-rule="evenodd" d="M29.2426 26.1549H30.9433C32.1493 26.1549 33.1269 25.1773 33.1269 23.9713V23.9713C33.1272 23.392 32.8973 22.8362 32.4878 22.4265C32.0783 22.0167 31.5227 21.7864 30.9433 21.7864H30.2137V21.0648C30.2137 19.8581 29.2354 18.8799 28.0288 18.8799V18.8799C26.8228 18.8799 25.8452 19.8575 25.8452 21.0635V22.7575C25.8443 23.0077 25.7446 23.2474 25.5677 23.4244L23.0093 25.9868C22.8322 26.1634 22.5925 26.2631 22.3424 26.2643H20.6377C19.4317 26.2643 18.4541 27.2419 18.4541 28.4479V28.4479C18.4537 29.0272 18.6836 29.583 19.0932 29.9928C19.5027 30.4025 20.0583 30.6328 20.6377 30.6328H21.3673V31.3611C21.3673 32.5678 22.3455 33.546 23.5522 33.546V33.546C24.7571 33.5445 25.7331 32.5673 25.7331 31.3624V29.6617C25.734 29.4115 25.8337 29.1718 26.0106 28.9948L28.569 26.4364C28.7471 26.2567 28.9896 26.1554 29.2426 26.1549Z" stroke="white" stroke-width="1.5" stroke-linecap="round" stroke-linejoin="round"/>
<circle cx="26.0001" cy="26.0001" r="12.005" stroke="white" stroke-width="1.5" stroke-linecap="round" stroke-linejoin="round"/>
</svg>
