<svg width="103" height="32" viewBox="0 0 103 32" fill="none" xmlns="http://www.w3.org/2000/svg">
<path fill-rule="evenodd" clip-rule="evenodd" d="M13.27 26.7333L13.7222 26.2811C14.3261 25.6772 15.1452 25.3379 15.9992 25.3379C16.8533 25.3379 17.6724 25.6772 18.2763 26.2811L18.7285 26.7333C19.5432 27.548 20.6482 28.0057 21.8004 28.0057H22.326C24.7253 28.0057 26.6703 26.0606 26.6703 23.6613C26.6703 22.2087 25.9444 20.8523 24.7358 20.0465C23.376 19.14 22.2433 17.9325 21.4254 16.5176L20.1983 14.3947C19.3414 12.9121 17.759 11.999 16.0466 11.999C14.3621 11.999 12.8012 12.8828 11.9345 14.3272L10.561 16.6165C9.75031 17.9676 8.64974 19.1218 7.33872 19.9958L7.26269 20.0465C6.05409 20.8523 5.32812 22.2087 5.32812 23.6613C5.32812 26.0606 7.27318 28.0057 9.67252 28.0057H10.1981C11.3503 28.0057 12.4553 27.548 13.27 26.7333Z" fill="#1B1B1B" stroke="#1B1B1B" stroke-width="2" stroke-linecap="round" stroke-linejoin="round"/>
<circle cx="5.99595" cy="12.6659" r="2.00083" fill="#1B1B1B" stroke="#1B1B1B" stroke-width="2" stroke-linecap="round" stroke-linejoin="round"/>
<circle cx="26.0038" cy="12.6659" r="2.00083" fill="#1B1B1B" stroke="#1B1B1B" stroke-width="2" stroke-linecap="round" stroke-linejoin="round"/>
<circle cx="11.7118" cy="5.99595" r="2.00083" fill="#1B1B1B" stroke="#1B1B1B" stroke-width="2" stroke-linecap="round" stroke-linejoin="round"/>
<circle cx="20.287" cy="5.99595" r="2.00083" fill="#1B1B1B" stroke="#1B1B1B" stroke-width="2" stroke-linecap="round" stroke-linejoin="round"/>
<path d="M41.2168 9.9043L44.3721 19.8535H44.4951L47.668 9.9043H50.7266L46.2178 23H42.6494L38.1318 9.9043H41.2168ZM55.0156 23.1934C54.0078 23.1934 53.1377 22.9883 52.4053 22.5781C51.6729 22.168 51.1104 21.585 50.7178 20.8291C50.3311 20.0674 50.1377 19.168 50.1377 18.1309C50.1377 17.123 50.3311 16.2383 50.7178 15.4766C51.1104 14.7148 51.6611 14.1201 52.3701 13.6924C53.085 13.2646 53.9229 13.0508 54.8838 13.0508C55.5342 13.0508 56.1406 13.1562 56.7031 13.3672C57.2656 13.5723 57.7578 13.8828 58.1797 14.2988C58.6016 14.709 58.9297 15.2275 59.1641 15.8545C59.3984 16.4756 59.5156 17.2051 59.5156 18.043V18.7812H51.2188V17.1025H58.1973L56.9316 17.542C56.9316 17.0439 56.8555 16.6104 56.7031 16.2412C56.5508 15.8721 56.3223 15.5879 56.0176 15.3887C55.7188 15.1836 55.3467 15.0811 54.9014 15.0811C54.4561 15.0811 54.0781 15.1836 53.7676 15.3887C53.4629 15.5938 53.2285 15.8721 53.0645 16.2236C52.9004 16.5752 52.8184 16.9795 52.8184 17.4365V18.623C52.8184 19.1562 52.9121 19.6133 53.0996 19.9941C53.2871 20.3691 53.5479 20.6592 53.8818 20.8643C54.2217 21.0635 54.6113 21.1631 55.0508 21.1631C55.3555 21.1631 55.6309 21.1191 55.877 21.0312C56.123 20.9434 56.334 20.8145 56.5098 20.6445C56.6914 20.4746 56.8262 20.2695 56.9141 20.0293L59.4277 20.1963C59.3047 20.7998 59.0469 21.3271 58.6543 21.7783C58.2676 22.2236 57.7666 22.5723 57.1514 22.8242C56.5361 23.0703 55.8242 23.1934 55.0156 23.1934ZM65.8965 13.1738V15.2305H59.9814V13.1738H65.8965ZM61.3262 10.8359H64.042V19.9766C64.042 20.3047 64.1152 20.5479 64.2617 20.7061C64.4082 20.8584 64.6426 20.9346 64.9648 20.9346C65.0703 20.9346 65.1875 20.9258 65.3164 20.9082C65.4453 20.8906 65.5566 20.8701 65.6504 20.8467L66.0811 22.8857C65.7822 22.9736 65.4922 23.0381 65.2109 23.0791C64.9355 23.1201 64.6631 23.1406 64.3936 23.1406C63.415 23.1406 62.6592 22.8975 62.126 22.4111C61.5928 21.9189 61.3262 21.2275 61.3262 20.3369V10.8359ZM71.3984 23.1934C70.3965 23.1934 69.5352 22.9795 68.8145 22.5518C68.0938 22.1182 67.54 21.5234 67.1533 20.7676C66.7666 20.0059 66.5732 19.127 66.5732 18.1309C66.5732 17.123 66.7666 16.2383 67.1533 15.4766C67.5459 14.7148 68.1025 14.1201 68.8232 13.6924C69.5439 13.2646 70.4023 13.0508 71.3984 13.0508C72.2539 13.0508 73.001 13.2061 73.6396 13.5166C74.2842 13.8271 74.7939 14.2637 75.1689 14.8262C75.5439 15.3887 75.749 16.0508 75.7842 16.8125H73.2178C73.1709 16.4844 73.0713 16.1973 72.9189 15.9512C72.7666 15.7051 72.5645 15.5146 72.3125 15.3799C72.0605 15.2451 71.7676 15.1777 71.4336 15.1777C71.0117 15.1777 70.6426 15.292 70.3262 15.5205C70.0156 15.7432 69.7725 16.0742 69.5967 16.5137C69.4268 16.9473 69.3418 17.4746 69.3418 18.0957C69.3418 18.7168 69.4268 19.25 69.5967 19.6953C69.7725 20.1406 70.0156 20.4805 70.3262 20.7148C70.6426 20.9492 71.0117 21.0664 71.4336 21.0664C71.9023 21.0664 72.2979 20.9199 72.6201 20.627C72.9424 20.3281 73.1416 19.918 73.2178 19.3965H75.7842C75.7432 20.1465 75.541 20.8086 75.1777 21.3828C74.8145 21.9512 74.3135 22.3965 73.6748 22.7188C73.0361 23.0352 72.2773 23.1934 71.3984 23.1934ZM79.7568 23.1846C79.1357 23.1846 78.5762 23.0762 78.0781 22.8594C77.5859 22.6367 77.1992 22.3086 76.918 21.875C76.6367 21.4414 76.4961 20.9023 76.4961 20.2578C76.4961 19.707 76.5957 19.25 76.7949 18.8867C76.9941 18.5176 77.2666 18.2188 77.6123 17.9902C77.958 17.7617 78.3506 17.5889 78.79 17.4717C79.2295 17.3545 79.6953 17.2725 80.1875 17.2256C80.7559 17.1729 81.2129 17.1201 81.5586 17.0674C81.9043 17.0146 82.1562 16.9355 82.3145 16.8301C82.4785 16.7188 82.5605 16.5605 82.5605 16.3555V16.3115C82.5605 15.9072 82.4316 15.5938 82.1738 15.3711C81.9219 15.1484 81.5645 15.0371 81.1016 15.0371C80.6152 15.0371 80.2256 15.1455 79.9326 15.3623C79.6455 15.5732 79.4551 15.8428 79.3613 16.1709L76.8389 15.9688C76.9678 15.3711 77.2197 14.8555 77.5947 14.4219C77.9697 13.9824 78.4531 13.6455 79.0449 13.4111C79.6426 13.1709 80.334 13.0508 81.1191 13.0508C81.6641 13.0508 82.1855 13.1152 82.6836 13.2441C83.1816 13.373 83.624 13.5723 84.0107 13.8418C84.4033 14.1055 84.7139 14.4482 84.9424 14.8701C85.1709 15.292 85.2852 15.793 85.2852 16.373V23H82.6924V21.6289H82.6221C82.4639 21.9395 82.2529 22.2119 81.9893 22.4463C81.7256 22.6748 81.4092 22.8564 81.04 22.9912C80.6709 23.1201 80.2432 23.1846 79.7568 23.1846ZM80.5391 21.3037C80.9375 21.3037 81.2891 21.2246 81.5938 21.0664C81.9043 20.9023 82.1445 20.6855 82.3145 20.416C82.4902 20.1406 82.5781 19.833 82.5781 19.4932V18.4473C82.4961 18.5 82.3789 18.5498 82.2266 18.5967C82.0801 18.6436 81.916 18.6846 81.7344 18.7197C81.5527 18.7549 81.3711 18.7871 81.1895 18.8164C81.0078 18.8398 80.8438 18.8633 80.6973 18.8867C80.375 18.9336 80.0938 19.0098 79.8535 19.1152C79.6133 19.2148 79.4258 19.3525 79.291 19.5283C79.1621 19.6982 79.0977 19.9121 79.0977 20.1699C79.0977 20.5391 79.2324 20.8203 79.502 21.0137C79.7715 21.207 80.1172 21.3037 80.5391 21.3037ZM86.876 23V13.1738H89.5039V14.8965H89.6094C89.791 14.2871 90.0928 13.8271 90.5146 13.5166C90.9365 13.2002 91.4199 13.042 91.9648 13.042C92.1055 13.042 92.252 13.0508 92.4043 13.0684C92.5625 13.0801 92.7031 13.1035 92.8262 13.1387V15.5469C92.6973 15.5059 92.5186 15.4736 92.29 15.4502C92.0674 15.4209 91.8594 15.4062 91.666 15.4062C91.2734 15.4062 90.9189 15.4941 90.6025 15.6699C90.2861 15.8398 90.0371 16.0801 89.8555 16.3906C89.6797 16.6953 89.5918 17.0469 89.5918 17.4453V23H86.876ZM97.6602 23.1934C96.6523 23.1934 95.7822 22.9883 95.0498 22.5781C94.3174 22.168 93.7549 21.585 93.3623 20.8291C92.9756 20.0674 92.7822 19.168 92.7822 18.1309C92.7822 17.123 92.9756 16.2383 93.3623 15.4766C93.7549 14.7148 94.3057 14.1201 95.0146 13.6924C95.7295 13.2646 96.5674 13.0508 97.5283 13.0508C98.1787 13.0508 98.7852 13.1562 99.3477 13.3672C99.9102 13.5723 100.402 13.8828 100.824 14.2988C101.246 14.709 101.574 15.2275 101.809 15.8545C102.043 16.4756 102.16 17.2051 102.16 18.043V18.7812H93.8633V17.1025H100.842L99.5762 17.542C99.5762 17.0439 99.5 16.6104 99.3477 16.2412C99.1953 15.8721 98.9668 15.5879 98.6621 15.3887C98.3633 15.1836 97.9912 15.0811 97.5459 15.0811C97.1006 15.0811 96.7227 15.1836 96.4121 15.3887C96.1074 15.5938 95.873 15.8721 95.709 16.2236C95.5449 16.5752 95.4629 16.9795 95.4629 17.4365V18.623C95.4629 19.1562 95.5566 19.6133 95.7441 19.9941C95.9316 20.3691 96.1924 20.6592 96.5264 20.8643C96.8662 21.0635 97.2559 21.1631 97.6953 21.1631C98 21.1631 98.2754 21.1191 98.5215 21.0312C98.7676 20.9434 98.9785 20.8145 99.1543 20.6445C99.3359 20.4746 99.4707 20.2695 99.5586 20.0293L102.072 20.1963C101.949 20.7998 101.691 21.3271 101.299 21.7783C100.912 22.2236 100.411 22.5723 99.7959 22.8242C99.1807 23.0703 98.4688 23.1934 97.6602 23.1934Z" fill="#1B1B1B"/>
</svg>
