<svg width="122" height="98" viewBox="0 0 122 98" fill="none" xmlns="http://www.w3.org/2000/svg">
<path d="M40.6341 33.8379C40.6341 33.5915 40.6341 30.0068 40.6341 30.0068H38.4797C38.4797 30.0068 38.4797 33.5359 38.4797 33.6472C38.4797 34.2989 37.8688 34.7361 36.8398 34.7361C35.7626 34.7361 35.1757 34.3148 35.1757 33.6392C35.1757 33.5279 35.1757 30.0068 35.1757 30.0068H32.9971C32.9971 30.0068 32.9971 33.353 32.9971 33.6392C32.9971 35.5308 34.5647 36.3337 36.7513 36.3337C39.0907 36.3337 40.6341 35.5229 40.6341 33.8379Z" fill="#FF9900"/>
<path d="M47.8855 36.2462V34.5851H44.0429V30.0068H41.8643V36.2462H47.8855Z" fill="#FF9900"/>
<path d="M54.3597 31.5727V30.0068H46.8271V31.5727H49.488V36.2462H51.6907V31.5727H54.3597Z" fill="#FF9900"/>
<path d="M57.283 36.2457V30.0063H55.0723V36.2457H57.283Z" fill="#FF9900"/>
<path d="M67.4129 36.2457V30.0063H64.6876L62.9673 33.7501L61.3274 30.0063H58.5137V36.2457H60.5636V32.8758L62.0428 36.2457H63.8758L65.3709 32.8758V36.2457H67.4129Z" fill="#FF9900"/>
<path d="M70.8257 35.0937H74.2343L74.7891 36.2462H77.1123L73.9288 30.0068H71.3322L67.9639 36.2462H70.2388L70.8257 35.0937ZM73.551 33.6948H71.5332L72.329 32.1926L72.5702 31.6204L72.7954 32.1846L73.551 33.6948Z" fill="#FF9900"/>
<path d="M83.916 31.5722V30.0063H76.3838V31.5722H79.0446V36.2457H81.2475V31.5722H83.916Z" fill="#FF9900"/>
<path d="M91.2728 36.2462V34.6963H86.7484V33.8855H91.088V32.3675H86.7484V31.5647H91.2172V30.0068H84.626V36.2462H91.2728Z" fill="#FF9900"/>
<path d="M49.4254 39.5625H47.3432C47.3432 39.5625 45.9846 43.4889 45.9846 43.5843C45.9846 43.4889 44.7144 39.5625 44.7144 39.5625H42.4555C42.4555 39.5625 41.1933 43.4889 41.1933 43.5843C41.1933 43.4889 39.8267 39.5625 39.8267 39.5625H37.4873L39.8509 45.8019H42.2063C42.2063 45.8019 43.4765 42.0742 43.4845 41.9708C43.4925 42.0742 44.7547 45.8019 44.7547 45.8019H47.1181L49.4254 39.5625Z" fill="#FF9900"/>
<path d="M52.2488 45.8024V39.563H50.0381V45.8024H52.2488Z" fill="#FF9900"/>
<path d="M60.8939 45.8024V39.563H58.8359V42.9569L55.8052 39.563H53.5381V45.8024H55.6123V42.3289L58.7394 45.8024H60.8939Z" fill="#FF9900"/>
<path d="M69.5109 45.8019V39.5625H67.4529V42.9564L64.4222 39.5625H62.1553V45.8019H64.2293V42.3285L67.3565 45.8019H69.5109Z" fill="#FF9900"/>
<path d="M77.367 45.8024V44.2525H72.8412V43.4417H77.1821V41.9236H72.8412V41.1208H77.3108V39.563H70.7188V45.8024H77.367Z" fill="#FF9900"/>
<path d="M85.871 41.4626C85.871 40.8984 85.7337 40.4929 85.4443 40.1988C85.0665 39.8014 84.4158 39.563 83.4183 39.563H78.3945V45.8024H80.541V43.6008H82.4945L84.0626 45.8024H86.458L84.5531 43.2589C84.9782 43.1953 85.3249 42.941 85.5489 42.639C85.75 42.3608 85.871 41.9474 85.871 41.4626ZM83.7813 41.6613C83.7813 41.7647 83.765 41.8918 83.7077 41.9872C83.6276 42.1461 83.4183 42.2098 83.0733 42.2098H80.549V41.0731H83.0324C83.3709 41.0731 83.5966 41.1287 83.7077 41.3355C83.765 41.4149 83.7813 41.5421 83.7813 41.6613Z" fill="#FF9900"/>
<path d="M41.5333 51.9405C41.5333 51.8385 41.5333 48.8916 41.5333 48.8916H40.7807C40.7807 48.8916 40.7807 51.8263 40.7807 51.8925C40.7807 52.6006 40.1068 53.0028 39.1356 53.0028C37.9884 53.0028 37.4237 52.5706 37.4237 51.8865C37.4237 51.8204 37.4237 48.8916 37.4237 48.8916H36.665C36.665 48.8916 36.665 51.7484 36.665 51.8624C36.665 53.1108 37.6484 53.6629 39.1053 53.6629C40.6106 53.6629 41.5333 53.0747 41.5333 51.9405Z" fill="#FF9900"/>
<path d="M46.9519 53.6029V52.9127H43.6679V48.8916H42.9092V53.6029H46.9519Z" fill="#FF9900"/>
<path d="M51.2746 49.5758V48.8916H46.2119V49.5758H48.3608V53.6029H49.1257V49.5758H51.2746Z" fill="#FF9900"/>
<path d="M56.6627 50.2239C56.6627 49.8878 56.5898 49.6417 56.4624 49.4437C56.2377 49.1136 55.8067 48.8916 55.0905 48.8916H52.0068V53.6029H52.7534V51.6163H54.9265L56.2559 53.6029H57.13L55.6914 51.4902C56.0556 51.4484 56.3409 51.2442 56.4927 50.9802C56.6021 50.8001 56.6627 50.5361 56.6627 50.2239ZM55.9099 50.2839C55.9099 50.416 55.8797 50.5781 55.825 50.6861C55.7279 50.8601 55.5032 50.9501 55.1391 50.9561H52.7595C52.7595 50.9441 52.7595 49.5638 52.7595 49.5638H54.9995C55.4547 49.5638 55.6975 49.6718 55.825 49.8758C55.8797 49.9719 55.9099 50.1338 55.9099 50.2839Z" fill="#FF9900"/>
<path d="M58.8402 52.4386H61.8086L62.4156 53.6029H63.229L60.813 48.8916H59.9207L57.4258 53.6029H58.2209L58.8402 52.4386ZM61.4929 51.7723H59.168L60.1331 49.9659L60.3456 49.5278L60.558 49.9659L61.4929 51.7723Z" fill="#FF9900"/>
<path d="M70.8768 53.1528C71.065 52.9367 71.15 52.6306 71.15 52.3005C71.15 51.9885 71.059 51.6763 70.8707 51.4843C70.6825 51.3043 70.3791 51.1543 70.0452 51.1242C70.2394 51.0941 70.3912 50.9742 70.4943 50.8481C70.6583 50.662 70.7553 50.362 70.7553 50.0619C70.7553 49.7437 70.6583 49.4557 70.4518 49.2576C70.2273 49.0356 69.8449 48.8916 69.3107 48.8916H66.1055V53.6029H69.5474C70.1909 53.6029 70.64 53.4409 70.8768 53.1528ZM69.9722 50.2119C69.9722 50.4219 69.9055 50.608 69.7902 50.716C69.6748 50.8421 69.4806 50.8961 69.2742 50.8961H66.846V49.5397H69.1346C69.4138 49.5397 69.6262 49.5937 69.7719 49.7258C69.8995 49.8458 69.9722 50.0199 69.9722 50.2119ZM70.2151 52.6966C70.0633 52.8647 69.8023 52.9488 69.4199 52.9488H66.846V51.5504H69.4382C69.7902 51.5504 70.0331 51.6223 70.1788 51.7604C70.3122 51.8865 70.367 52.0485 70.367 52.2345C70.367 52.4266 70.3244 52.5886 70.2151 52.6966Z" fill="#FF9900"/>
<path d="M76.674 53.6029V52.9127H72.9712V51.5683H76.5283V50.8841H72.9712V49.5758H76.6314V48.8916H72.2305V53.6029H76.674Z" fill="#FF9900"/>
<path d="M82.6285 52.2107C82.6285 51.4425 82.1134 51.0464 80.8446 50.9023C80.6315 50.8724 80.1701 50.8244 79.9212 50.7943C78.7436 50.6563 78.3855 50.5003 78.3855 50.0982C78.3855 49.7081 78.78 49.486 79.9698 49.486C80.892 49.486 81.3662 49.6661 81.6033 49.9901C81.6703 50.0801 81.7063 50.1883 81.7243 50.2722H82.5369C82.514 50.1341 82.4584 49.942 82.3734 49.786C82.0464 49.228 81.3727 48.8257 79.9698 48.8257C78.2944 48.8197 77.6024 49.42 77.6024 50.1642C77.6024 50.9083 78.1427 51.2865 79.545 51.4486C79.7878 51.4785 80.2186 51.5265 80.4312 51.5506C81.5182 51.6825 81.8583 51.8447 81.8583 52.2948C81.8583 52.709 81.4692 53.009 80.2247 53.009C79.205 53.009 78.6585 52.8289 78.4401 52.4809C78.3734 52.3848 78.3309 52.2348 78.3248 52.1328H77.5234C77.5418 52.3488 77.6024 52.5829 77.7116 52.7689C78.0274 53.3391 78.7679 53.6693 80.2005 53.6693C81.9123 53.6693 82.6285 53.123 82.6285 52.2107Z" fill="#FF9900"/>
<path d="M88.0477 49.5758V48.8916H82.9854V49.5758H85.1339V53.6029H85.8992V49.5758H88.0477Z" fill="#FF9900"/>
<path d="M34.5327 57.6979C34.5327 57.2178 34.4356 56.8936 34.2716 56.6476C34.041 56.2933 33.5917 56.1074 32.8086 56.1074H29.7979V60.8187H30.5505V59.2822C30.5505 59.2822 32.6752 59.2822 32.7784 59.2822C33.5129 59.2763 34.0167 59.1083 34.2838 58.7242C34.4537 58.4901 34.5327 58.154 34.5327 57.6979ZM33.7678 57.6979C33.7678 57.9378 33.7434 58.1179 33.6646 58.238C33.525 58.46 33.2396 58.5981 32.6508 58.5981C32.5962 58.5981 30.5505 58.5981 30.5505 58.5981V56.7796H32.6752C33.2275 56.7796 33.5129 56.9056 33.6646 57.1516C33.7374 57.2596 33.7678 57.4578 33.7678 57.6979Z" fill="#FF9900"/>
<path d="M40.0304 60.8187V60.1286H36.3275V58.7841H39.8847V58.1H36.3275V56.7916H39.9879V56.1074H35.5869V60.8187H40.0304Z" fill="#FF9900"/>
<path d="M45.8082 57.4397C45.8082 57.1036 45.7355 56.8576 45.6079 56.6595C45.3833 56.3294 44.9524 56.1074 44.236 56.1074H41.1523V60.8187H41.8989V58.8322H44.0722L45.4016 60.8187H46.2757L44.837 58.7061C45.2013 58.6642 45.4866 58.46 45.6383 58.196C45.7476 58.0159 45.8082 57.7519 45.8082 57.4397ZM45.0556 57.4997C45.0556 57.6318 45.0252 57.7939 44.9705 57.9019C44.8734 58.0759 44.6488 58.1659 44.2846 58.1719H41.905C41.905 58.1599 41.905 56.7796 41.905 56.7796H44.145C44.6002 56.7796 44.843 56.8876 44.9705 57.0917C45.0252 57.1877 45.0556 57.3497 45.0556 57.4997Z" fill="#FF9900"/>
<path d="M51.4266 56.7916V56.1074H47.1895V60.8187H47.9421V58.8142H51.2688V58.1119H47.9421V56.7916H51.4266Z" fill="#FF9900"/>
<path d="M54.921 56.0234C53.9072 56.0234 53.2092 56.2695 52.7113 56.7857C52.2925 57.1878 52.1104 57.746 52.1104 58.4481C52.1104 59.2164 52.3471 59.7925 52.7842 60.1826C53.2517 60.6448 53.9679 60.8848 54.921 60.8848C55.9044 60.8848 56.6691 60.6448 57.1245 60.1585C57.5191 59.7625 57.7254 59.1984 57.7254 58.4421C57.7254 57.7099 57.5493 57.1517 57.1305 56.7556C56.651 56.2635 55.9346 56.0234 54.921 56.0234ZM54.921 60.2127C54.2532 60.2127 53.7797 60.0687 53.4216 59.7806C53.0574 59.4865 52.8813 59.0363 52.8813 58.4601C52.8813 57.9199 53.0331 57.4699 53.3244 57.1997C53.6583 56.8877 54.1682 56.7016 54.9149 56.7016C55.6857 56.7016 56.1653 56.8817 56.5234 57.1937C56.8271 57.4579 56.9605 57.9259 56.9605 58.4541C56.9605 58.9882 56.821 59.4445 56.5113 59.7204C56.1532 60.0506 55.6494 60.2127 54.921 60.2127Z" fill="#FF9900"/>
<path d="M63.403 57.4397C63.403 57.1036 63.33 56.8576 63.2026 56.6595C62.978 56.3294 62.547 56.1074 61.8308 56.1074H58.7471V60.8187H59.4937V58.8322H61.6668L62.9963 60.8187H63.8703L62.4317 58.7061C62.7958 58.6642 63.0812 58.46 63.2329 58.196C63.3423 58.0159 63.403 57.7519 63.403 57.4397ZM62.6501 57.4997C62.6501 57.6318 62.6199 57.7939 62.5653 57.9019C62.4681 58.0759 62.2435 58.1659 61.8793 58.1719H59.4997C59.4997 58.1599 59.4997 56.7796 59.4997 56.7796H61.7397C62.1949 56.7796 62.4377 56.8876 62.5653 57.0917C62.6199 57.1877 62.6501 57.3497 62.6501 57.4997Z" fill="#FF9900"/>
<path d="M70.6512 60.8187V56.1074H69.6679L67.7072 59.9845L65.7828 56.1074H64.7812V60.8187H65.5037V57.1937L67.3003 60.8187H68.0895L69.9288 57.1937V60.8187H70.6512Z" fill="#FF9900"/>
<path d="M72.8001 59.6544H75.7686L76.3755 60.8187H77.189L74.7729 56.1074H73.8806L71.3857 60.8187H72.1809L72.8001 59.6544ZM75.4528 58.9882H73.128L74.093 57.1817L74.3056 56.7436L74.518 57.1817L75.4528 58.9882Z" fill="#FF9900"/>
<path d="M82.6369 60.8187V56.1074H81.9141V59.7684L78.7583 56.1074H77.9023V60.8187H78.6368V57.1337L81.8177 60.8187H82.6369Z" fill="#FF9900"/>
<path d="M89.2029 59.0603H88.4131C88.3886 59.2763 88.3035 59.4925 88.1515 59.6545C87.8244 60.0326 87.3028 60.1946 86.5016 60.1946C85.8279 60.1946 85.1052 60.0085 84.7586 59.5224C84.5771 59.2944 84.461 58.9583 84.461 58.4541C84.461 58.004 84.5411 57.6679 84.716 57.4398C85.0071 56.9778 85.6203 56.7377 86.4836 56.7377C87.3208 56.7377 87.849 56.9656 88.1286 57.2838C88.2855 57.4518 88.3771 57.65 88.4065 57.8839H89.1963C89.1718 57.6199 89.0868 57.3077 88.9053 57.0437C88.5161 56.4735 87.7999 56.0234 86.4885 56.0234C85.2393 56.0234 84.492 56.4195 84.0783 57.0136C83.8118 57.3557 83.6777 57.8359 83.6777 58.4481C83.6777 59.1323 83.8429 59.6365 84.1274 59.9906C84.5411 60.5488 85.3358 60.8848 86.5376 60.8848C87.7705 60.8848 88.5047 60.5187 88.8693 59.9366C89.0753 59.6545 89.1783 59.3184 89.2029 59.0603Z" fill="#FF9900"/>
<path d="M94.6259 60.8187V60.1286H90.9224V58.7841H94.4804V58.1H90.9224V56.7916H94.5834V56.1074H90.1816V60.8187H94.6259Z" fill="#FF9900"/>
<path d="M39.0986 65.499L40.0064 68.2616H42.9443L40.5676 69.9689L41.4754 72.7313L39.0986 71.0241L36.7218 72.7313L37.6298 69.9689L35.2529 68.2616H38.1908L39.0986 65.499Z" fill="#FF9900"/>
<path d="M49.5755 65.499L50.5018 68.2614H53.4997L51.0745 69.9688L52.0008 72.7313L49.5755 71.024L47.1503 72.7313L48.0766 69.9688L45.6514 68.2614H48.6492L49.5755 65.499Z" fill="#FF9900"/>
<path d="M59.974 65.499L60.9004 68.2614H63.8981L61.4729 69.9688L62.3994 72.7313L59.974 71.024L57.5487 72.7313L58.475 69.9688L56.0498 68.2614H59.0477L59.974 65.499Z" fill="#FF9900"/>
<path d="M70.3724 65.499L71.2987 68.2614H74.2966L71.8713 69.9688L72.7976 72.7313L70.3724 71.024L67.9472 72.7313L68.8735 69.9688L66.4482 68.2614H69.4461L70.3724 65.499Z" fill="#FF9900"/>
<path d="M80.8898 65.499L81.7973 68.2614H84.7356L82.3581 69.9688L83.2656 72.7313L80.8898 71.024L78.5128 72.7313L79.4208 69.9688L77.0439 68.2614H79.9818L80.8898 65.499Z" fill="#FF9900"/>
<path d="M44.1888 18.8921L44.8753 20.9808H47.0966L45.2996 22.2717L45.986 24.3603L44.1888 23.0696L42.3918 24.3603L43.0783 22.2717L41.2812 20.9808H43.5026L44.1888 18.8921Z" fill="#FF9900"/>
<path d="M52.138 18.8892L52.8385 20.9779H55.105L53.2713 22.2688L53.9717 24.3574L52.138 23.0665L50.3042 24.3574L51.0047 22.2688L49.1709 20.9779H51.4375L52.138 18.8892Z" fill="#FF9900"/>
<path d="M59.9691 18.8892L60.6694 20.9779H62.936L61.1024 22.2688L61.8027 24.3574L59.9691 23.0665L58.1353 24.3574L58.8358 22.2688L57.002 20.9779H59.2686L59.9691 18.8892Z" fill="#FF9900"/>
<path d="M67.8587 18.8892L68.559 20.9779H70.8257L68.992 22.2688L69.6924 24.3574L67.8587 23.0665L66.0249 24.3574L66.7254 22.2688L64.8916 20.9779H67.1582L67.8587 18.8892Z" fill="#FF9900"/>
<path d="M75.7504 18.8892L76.4368 20.9779H78.6581L76.8611 22.2688L77.5475 24.3574L75.7504 23.0665L73.9534 24.3574L74.6398 22.2688L72.8428 20.9779H75.0639L75.7504 18.8892Z" fill="#FF9900"/>
<path fill-rule="evenodd" clip-rule="evenodd" d="M12.5559 56.4862C9.52669 37.7476 18.3675 19.208 36.0664 11.2466L36.2298 11.6016C18.709 19.4829 9.9412 37.8411 12.9454 56.4247C16.2692 76.9843 33.0447 89.3146 53.5877 89.909L53.5761 90.299C32.873 89.6999 15.9139 77.258 12.5559 56.4862Z" fill="#FF9900"/>
<path d="M32.212 16.029C28.9413 16.1027 25.1133 17.9263 22.8545 20.5751C24.6659 22.2381 27.5804 21.6233 29.6777 21.2832C32.6712 20.7978 35.8545 19.8576 38.6792 18.5266C37.5177 16.0822 34.3891 15.98 32.212 16.029Z" fill="#FF9900"/>
<path d="M29.6679 12.0395C27.7306 15.0232 25.4218 17.9886 22.9093 20.6C20.8071 18.6491 22.076 15.4023 22.934 13.3832C24.4881 9.72473 28.2145 6.56981 32.1102 4.95557C33.1794 7.36068 30.857 10.2081 29.6679 12.0395Z" fill="#FF9900"/>
<path d="M22.7638 24.3957C19.7011 25.4721 17.0694 28.502 15.748 31.544C17.9502 32.5563 20.4538 31.0944 22.2853 30.121C24.8002 28.7843 27.3658 26.94 29.3846 24.8057C27.5606 22.9029 24.791 23.6834 22.7638 24.3957Z" fill="#FF9900"/>
<path d="M19.0601 21.4143C18.3897 24.8174 17.2658 28.3446 15.7895 31.5595C13.2129 30.358 13.311 26.9168 13.4214 24.7269C13.6098 20.989 15.7248 16.7265 18.6695 14.0176C20.4723 15.9285 19.4872 19.2465 19.0601 21.4143Z" fill="#FF9900"/>
<path d="M16.8838 35.1984C14.3319 37.1889 12.785 40.8776 12.4268 44.1716C14.8409 44.4456 16.7705 42.2734 18.2063 40.7832C20.1611 38.7541 22.0116 36.2092 23.1868 33.5467C20.8855 32.3054 18.5461 33.9018 16.8838 35.1984Z" fill="#FF9900"/>
<path d="M12.4447 33.5179C12.8997 36.9544 12.9007 40.6723 12.4455 44.1759C9.63796 43.8349 8.70675 40.502 8.15669 38.4112C7.20701 34.8021 7.84373 30.1403 9.69372 26.6318C12.0056 27.8972 12.1539 31.3213 12.4447 33.5179Z" fill="#FF9900"/>
<path d="M14.8767 46.9892C12.8573 49.9139 12.1472 54.4973 13.0554 58.1814C15.7239 57.5567 17.0467 54.5696 18.1089 52.46C19.5205 49.6562 20.7137 46.3852 21.1408 43.176C18.2464 42.5804 16.2069 45.0625 14.8767 46.9892Z" fill="#FF9900"/>
<path d="M9.54804 46.6937C11.1214 50.2951 12.3492 54.259 13.0677 58.1727C10.0072 58.8227 7.80449 55.6453 6.52484 53.5385C4.2466 49.7881 3.5829 44.5891 4.41747 40.1025C7.21862 40.6579 8.58936 44.4999 9.54804 46.6937Z" fill="#FF9900"/>
<path d="M16.2609 59.7144C15.1767 63.2624 15.9303 68.0857 18.1256 71.4212C20.5381 69.8682 20.872 66.4503 21.2139 63.9996C21.6647 60.7656 21.877 57.183 21.3169 53.8296C18.2313 54.219 16.9851 57.3442 16.2609 59.7144Z" fill="#FF9900"/>
<path d="M10.9431 61.2331C13.6502 64.3043 16.1474 67.806 18.2069 71.3981C15.4137 73.1221 12.1361 70.7668 10.1483 69.1C6.62177 66.1433 4.33193 61.1179 3.78906 56.3801C6.7238 55.9901 9.3101 59.3803 10.9431 61.2331Z" fill="#FF9900"/>
<path d="M22.0071 71.7902C22.2398 75.9199 24.9591 80.2534 28.58 82.72C30.3286 80.353 29.2326 76.7263 28.6361 74.1948C27.8331 70.7864 26.7217 67.2372 25.07 64.0879C22.1899 65.5927 21.8539 69.0705 22.0071 71.7902Z" fill="#FF9900"/>
<path d="M17.1277 75.2785C21.0506 77.4337 24.9622 79.9769 28.599 82.683C26.421 85.5186 22.0676 84.388 19.369 83.4765C14.6134 81.8703 10.3736 77.6363 8.15918 72.9323C10.9669 71.5023 14.8104 74.0054 17.1277 75.2785Z" fill="#FF9900"/>
<path d="M33.166 81.8794C35.5204 86.1277 40.8858 88.8992 45.9384 89.5664C46.4822 86.4779 43.1022 83.42 41.2604 81.4195C38.6381 78.5714 35.9057 75.6158 32.8421 73.1533C30.5468 75.7882 31.7603 79.343 33.166 81.8794Z" fill="#FF9900"/>
<path d="M29.7885 87.2634C35.1405 87.8135 40.5832 88.6055 45.932 89.5188C45.4214 93.4156 39.1668 94.0445 36.3274 94.2745C30.5055 94.7463 24.0291 92.4325 19.5195 88.5373C21.7593 85.9316 26.9376 86.9704 29.7885 87.2634Z" fill="#FF9900"/>
<path d="M40.1249 7.97599C36.5317 8.98948 32.3258 10.9122 30.248 14.4614C34.0195 14.055 37.7262 12.7282 41.3511 11.7173C45.4115 10.5848 49.6869 9.73783 53.618 8.17468C49.3127 6.47168 44.2376 6.81587 40.1249 7.97599Z" fill="#FF9900"/>
<path fill-rule="evenodd" clip-rule="evenodd" d="M109.583 56.4247C112.587 37.8411 103.819 19.4832 86.299 11.6016L86.4625 11.2466C104.161 19.2082 113.002 37.7476 109.973 56.4862C106.616 77.258 89.6559 89.6999 68.9529 90.299L68.9414 89.909C89.4843 89.3146 106.259 76.9843 109.583 56.4247Z" fill="#FF9900"/>
<path d="M90.3 16.029C93.5702 16.1027 97.3981 17.9263 99.6579 20.5751C97.8461 22.2381 94.9307 21.6233 92.8344 21.2832C89.8405 20.7978 86.6569 19.8576 83.833 18.5266C84.994 16.0822 88.122 15.98 90.3 16.029Z" fill="#FF9900"/>
<path d="M92.9015 12.0395C94.8392 15.0232 97.148 17.9886 99.6596 20.6C101.762 18.6491 100.493 15.4023 99.635 13.3832C98.0817 9.72473 94.3552 6.56981 90.4587 4.95557C89.3893 7.36068 91.7128 10.2081 92.9015 12.0395Z" fill="#FF9900"/>
<path d="M99.7779 24.3957C102.84 25.4721 105.471 28.502 106.793 31.544C104.59 32.5563 102.087 31.0944 100.255 30.121C97.7405 28.7843 95.175 26.94 93.1572 24.8057C94.9804 22.9029 97.7503 23.6834 99.7779 24.3957Z" fill="#FF9900"/>
<path d="M103.495 21.4143C104.165 24.8174 105.289 28.3446 106.765 31.5595C109.342 30.358 109.244 26.9168 109.133 24.7269C108.945 20.989 106.831 16.7265 103.886 14.0176C102.082 15.9285 103.068 19.2465 103.495 21.4143Z" fill="#FF9900"/>
<path d="M105.693 35.1984C108.246 37.1889 109.793 40.8776 110.151 44.1716C107.737 44.4456 105.808 42.2734 104.372 40.7832C102.417 38.7541 100.566 36.2092 99.3916 33.5467C101.692 32.3054 104.032 33.9018 105.693 35.1984Z" fill="#FF9900"/>
<path d="M110.127 33.5179C109.67 36.9541 109.67 40.6723 110.125 44.1759C112.932 43.8349 113.864 40.502 114.414 38.4112C115.364 34.8021 114.726 30.1403 112.877 26.6318C110.565 27.8972 110.416 31.3213 110.127 33.5179Z" fill="#FF9900"/>
<path d="M107.683 46.9892C109.703 49.9139 110.412 54.4973 109.505 58.1814C106.836 57.5567 105.513 54.5698 104.45 52.46C103.039 49.6562 101.846 46.3852 101.419 43.176C104.313 42.5804 106.354 45.0625 107.683 46.9892Z" fill="#FF9900"/>
<path d="M112.976 46.6937C111.403 50.2951 110.175 54.259 109.457 58.1727C112.516 58.8227 114.719 55.6453 115.999 53.5385C118.277 49.7881 118.941 44.5891 118.107 40.1025C115.306 40.6579 113.934 44.4999 112.976 46.6937Z" fill="#FF9900"/>
<path d="M106.302 59.7144C107.386 63.2624 106.634 68.0857 104.438 71.4212C102.026 69.8682 101.691 66.4503 101.349 63.9996C100.899 60.7656 100.687 57.183 101.246 53.8296C104.331 54.219 105.577 57.3442 106.302 59.7144Z" fill="#FF9900"/>
<path d="M111.631 61.2331C108.925 64.3045 106.428 67.806 104.368 71.3981C107.161 73.1221 110.439 70.7668 112.428 69.1C115.953 66.1433 118.244 61.1179 118.787 56.3801C115.852 55.9901 113.265 59.3803 111.631 61.2331Z" fill="#FF9900"/>
<path d="M100.563 71.7902C100.331 75.9199 97.6116 80.2534 93.9914 82.72C92.2418 80.353 93.3389 76.7265 93.9341 74.1948C94.737 70.7864 95.8489 67.2372 97.5004 64.0879C100.381 65.5927 100.717 69.0705 100.563 71.7902Z" fill="#FF9900"/>
<path d="M105.446 75.2785C101.523 77.4337 97.6121 79.9769 93.9756 82.683C96.1536 85.5186 100.506 84.388 103.204 83.4765C107.961 81.8703 112.201 77.6363 114.415 72.9323C111.607 71.5023 107.763 74.0054 105.446 75.2785Z" fill="#FF9900"/>
<path d="M89.4191 81.8794C87.0645 86.1277 81.6996 88.8992 76.6464 89.5664C76.1025 86.4779 79.4824 83.42 81.3252 81.4195C83.9463 78.5714 86.6786 75.6158 89.7428 73.1533C92.0386 75.7882 90.8237 79.343 89.4191 81.8794Z" fill="#FF9900"/>
<path d="M92.7576 87.2634C87.4058 87.8135 81.9641 88.6055 76.6143 89.5188C77.1251 93.4156 83.3801 94.0445 86.2187 94.2745C92.0414 94.7463 98.5182 92.4325 103.026 88.5373C100.788 85.9316 95.6093 86.9704 92.7576 87.2634Z" fill="#FF9900"/>
<path d="M82.4376 7.97599C86.03 8.98948 90.2372 10.9122 92.3139 14.4614C88.5432 14.055 84.8364 12.7282 81.2113 11.7173C77.1509 10.5848 72.8755 9.73783 68.9443 8.17468C73.2498 6.47168 78.3248 6.81587 82.4376 7.97599Z" fill="#FF9900"/>
<path d="M63.6379 6.13929L61.7943 2.11719L59.9854 6.06444L55.7783 3.48553L58.4817 9.10232H65.2047L67.8105 3.48553L63.6379 6.13929Z" fill="#FF9900"/>
<path d="M65.137 9.9751H58.4033V10.9575H65.137V9.9751Z" fill="#FF9900"/>
<path d="M62.2708 85.9766L63.3559 89.2781H66.867L64.0265 91.3185L65.1114 94.6201L62.2708 92.5797L59.4303 94.6201L60.5154 91.3185L57.6748 89.2781H61.1859L62.2708 85.9766Z" fill="#FF9900"/>
</svg>
