<svg width="146" height="63" viewBox="0 0 146 63" fill="none" xmlns="http://www.w3.org/2000/svg">
<path d="M73.2284 20.8154C73.8288 20.8069 74.3393 20.6947 74.3309 20.0775V19.985C74.3393 19.3706 73.8288 19.2583 73.2284 19.25C72.6253 19.2583 72.1147 19.3706 72.1232 19.985V20.0775C72.1147 20.6947 72.6253 20.8069 73.2284 20.8154Z" fill="#FF9900"/>
<path d="M51.2793 19.575C51.2793 19.3955 51.1363 19.2524 50.9567 19.2524H49.1641V19.8948H50.9567C51.0465 19.8948 51.1221 19.864 51.1839 19.8023C51.2484 19.7377 51.2793 19.662 51.2793 19.575Z" fill="#FF9900"/>
<path d="M61.3705 19.2441L61.8868 20.3579H60.8516L61.3705 19.2441Z" fill="#FF9900"/>
<path d="M84.4018 19.2441L84.9181 20.3579H83.8828L84.4018 19.2441Z" fill="#FF9900"/>
<path d="M47.7294 42.6961L46.9665 41.0498L46.1992 42.6961H47.7294Z" fill="#FF9900"/>
<path d="M65.7363 42.2237C65.7363 42.7836 65.417 43.2439 64.8531 43.2439H62.4727V41.2036H64.8531C65.417 41.2036 65.7363 41.6598 65.7363 42.2237Z" fill="#FF9900"/>
<path d="M71.7653 41.0498L72.5284 42.6961H70.998L71.7653 41.0498Z" fill="#FF9900"/>
<path d="M81.0386 41.0625C81.304 41.0625 81.5155 41.2741 81.5155 41.5394C81.5155 41.668 81.4699 41.78 81.3745 41.8753C81.2832 41.9666 81.1713 42.0122 81.0386 42.0122H78.3887V41.0625H81.0386Z" fill="#FF9900"/>
<path d="M89.8057 42.2237C89.8057 42.7836 89.4858 43.2439 88.9217 43.2439H86.541V41.2036H88.9217C89.4858 41.2036 89.8057 41.6598 89.8057 42.2237Z" fill="#FF9900"/>
<path d="M37.6552 31.8327L34.8895 25.4473H30.1445V36.0897H33.6016V30.3414L36.0961 36.0897H39.1872L41.7088 30.3414V36.0897H45.1523V25.4473H40.5564L37.6552 31.8327Z" fill="#FF9900"/>
<path d="M59.2606 36.0897V33.446H51.6279V32.0632H58.9489V29.4738H51.6279V28.1045H59.1658V25.4473H48.0488V36.0897H59.2606Z" fill="#FF9900"/>
<path d="M62.1771 34.205C63.2345 35.5744 65.1189 36.2522 67.383 36.2522C69.0833 36.2522 70.3295 35.9069 71.1978 35.3592C71.3471 35.265 71.4854 35.1647 71.6128 35.0592L71.7078 36.0895H74.6225V29.7854H67.5457V32.0766H71.3282C71.3115 32.1851 71.2537 32.3553 71.1706 32.5175C71.1187 32.6188 71.0569 32.7169 70.9892 32.7951C70.5961 33.256 69.5521 33.6628 68.1964 33.6628C66.7865 33.6628 65.8781 33.2968 65.39 32.7274C65.0647 32.307 64.8749 31.7105 64.8749 30.8158C64.8749 29.8804 65.0647 29.2431 65.4308 28.8229C65.9594 28.2264 66.8542 27.9688 68.1693 27.9688C69.3488 27.9688 70.1623 28.2399 70.5419 28.5789C70.7859 28.7822 70.9757 29.0669 71.0163 29.2567H74.5277C74.5227 29.1316 74.5047 28.9786 74.4745 28.8158C74.4229 28.5377 74.3356 28.2303 74.2158 27.9824C73.3753 26.2741 71.423 25.2573 68.1016 25.2573C65.2139 25.2573 63.2751 26.1385 62.2042 27.4672C61.4992 28.3755 61.1738 29.5143 61.1738 30.7886C61.1738 32.1986 61.5534 33.4052 62.1771 34.205Z" fill="#FF9900"/>
<path d="M65.3164 30.8158C65.3164 29.9311 65.4973 29.4196 65.7627 29.1139C66.1618 28.6647 66.8901 28.4097 68.17 28.4097C69.308 28.4097 69.9889 28.6756 70.2488 28.9078L70.2545 28.9127L70.2602 28.9176C70.3496 28.9921 70.4314 29.0839 70.4932 29.1733C70.5542 29.2617 70.5787 29.3231 70.5847 29.3446H67.1055V32.5175H70.6471C70.5203 32.6609 70.248 32.8397 69.8155 32.9834C69.3849 33.1265 68.8324 33.2219 68.1971 33.2219C66.8574 33.2219 66.104 32.8752 65.7327 32.4487C65.4899 32.1305 65.3164 31.6424 65.3164 30.8158Z" fill="#FF9900"/>
<path d="M83.8323 29.3682L82.8223 31.2966H84.7866L83.8323 29.3682Z" fill="#FF9900"/>
<path fill-rule="evenodd" clip-rule="evenodd" d="M86.6489 34.1238L87.5845 36.0897H91.5026L86.1334 25.4473H81.7547L76.0742 36.0897H79.9109L80.9006 34.1238H86.6489ZM82.0936 31.7378L83.4358 29.1755L83.8425 28.1994L84.2221 29.1619L85.4968 31.7378H82.0936Z" fill="#FF9900"/>
<path fill-rule="evenodd" clip-rule="evenodd" d="M114.939 54.517H114.933C114.858 54.517 114.782 54.5166 114.707 54.5158V54.517H31.7827C24.4652 54.517 17.938 51.1333 13.6805 45.8453H25.8982V44.2967H12.5357C10.5423 41.3529 9.20652 37.9275 8.73932 34.2313H25.8982V32.6828H8.59581C8.56849 32.2216 8.55469 31.7569 8.55469 31.289C8.55469 28.2234 9.14852 25.2967 10.2275 22.6172H25.8982V21.0687H10.9182C12.5598 17.7238 14.9819 14.8314 17.9473 12.6292H101.103C102.14 11.8593 103.243 11.1737 104.402 10.5825C104.09 10.7419 103.782 10.9079 103.478 11.0806H20.3217C23.7034 9.15862 27.6148 8.06104 31.7826 8.06104H114.707V8.06213C114.784 8.06136 114.862 8.06104 114.939 8.06104C127.767 8.06104 138.167 18.4605 138.167 31.289C138.167 44.1175 127.767 54.517 114.939 54.517ZM123.576 42.1832C124.616 39.0501 125.237 35.3287 125.237 31.289C125.237 27.5231 124.696 24.0337 123.782 21.0396C123.669 20.674 123.552 20.3159 123.43 19.9655C123.225 19.3819 123.006 18.8199 122.774 18.2814C122.46 17.5542 122.122 16.8697 121.763 16.2324C120.069 13.2257 118.136 11.6064 116.333 11.0613V18.2814H121.076C121.477 19.1376 121.844 20.07 122.168 21.0687H116.333V29.8953H123.662C123.679 30.3546 123.688 30.8193 123.688 31.289C123.688 31.7587 123.679 32.2234 123.662 32.6827H116.333V41.5093H122.167C121.844 42.5081 121.477 43.4404 121.076 44.2966H116.333V51.5169C118.136 50.9718 120.069 49.3524 121.763 46.3456C122.122 45.7084 122.461 45.0238 122.774 44.2966C123.063 43.6272 123.331 42.9215 123.576 42.1832ZM126.693 21.0687C127.437 23.7593 127.896 26.7427 128.001 29.8953H135.333C135.117 26.6952 134.165 23.697 132.645 21.0687H126.693ZM130.707 18.2814H125.782C124.888 15.9391 123.76 13.9016 122.457 12.2754C125.695 13.5565 128.526 15.6403 130.707 18.2814ZM113.546 11.061V18.2814H107.104C107.418 17.5542 107.755 16.8697 108.115 16.2324C109.808 13.2252 111.742 11.6057 113.546 11.061ZM107.421 12.2753C106.118 13.9015 104.99 15.939 104.096 18.2814H99.1701C101.351 15.6402 104.184 13.5563 107.421 12.2753ZM103.185 21.0687H94.2657V22.6172H96.424C95.375 24.852 94.7191 27.3076 94.5449 29.8953H101.877C101.982 26.7427 102.441 23.7593 103.185 21.0687ZM113.546 21.0687H106.088C105.291 23.683 104.782 26.6735 104.667 29.8953H113.546V21.0687ZM128.001 32.6827C127.896 35.8353 127.437 38.8186 126.693 41.5093H132.645C134.165 38.881 135.117 35.8828 135.333 32.6827H128.001ZM106.088 41.5093C105.291 38.895 104.782 35.9044 104.667 32.6827H113.546V41.5093H106.088ZM103.185 41.5093C102.441 38.8186 101.982 35.8353 101.877 32.6827H94.5449C94.7604 35.8828 95.7125 38.881 97.2328 41.5093H103.185ZM125.782 44.2966C124.888 46.639 123.76 48.6763 122.458 50.3026C125.695 49.0215 128.526 46.9376 130.707 44.2966H125.782ZM107.104 44.2966H113.546V51.5172C111.742 50.9724 109.808 49.3529 108.115 46.3456C107.755 45.7084 107.418 45.0238 107.104 44.2966ZM104.096 44.2966L94.2657 44.2967V45.8452H100.589C102.527 47.7567 104.845 49.2838 107.421 50.3028C106.118 48.6765 104.99 46.6391 104.096 44.2966ZM73.2287 18.0547C71.8092 18.0574 70.6478 18.467 70.6535 19.895V20.1699C70.6478 21.595 71.8092 22.0074 73.2287 22.0102C74.6454 22.0074 75.8069 21.595 75.8012 20.1699V19.895C75.8012 18.4698 74.6482 18.0547 73.2287 18.0547ZM29.1288 18.1472V21.9176H30.5988V18.1472H29.1288ZM35.0565 20.1447L33.4013 18.1472H31.3787V21.9176H32.8487V19.6145L34.8741 21.9176H36.5293V18.1472H35.0565V20.1447ZM40.2576 19.3479V21.9233H38.7876V19.3479H37.0399V18.1529H42.0053V19.3479H40.2576ZM42.4991 21.9233H46.9119V20.9554H43.969V20.4729H46.9119V19.6004H43.969V19.1179H46.9119V18.1529H42.4991V21.9233ZM47.6945 21.9204V18.15H51.3274C52.1045 18.1417 52.7638 18.7953 52.7526 19.5752C52.7526 19.8585 52.6768 20.1165 52.5253 20.3467C52.3766 20.5738 52.1775 20.7478 51.9306 20.8628L52.7526 21.9204H51.1872L50.4775 21.0003H49.1646V21.9204H47.6945ZM56.8876 20.1447L55.2325 18.1472H53.2098V21.9176H54.6799V19.6145L56.7053 21.9176H58.3605V18.1472H56.8876V20.1447ZM60.1279 21.9233H58.4727L60.4953 18.1529H62.2431L64.2657 21.9233H62.6105L62.3132 21.278H60.4252L60.1279 21.9233ZM66.5099 21.9233V19.3479H68.2577V18.1529H63.2923V19.3479H65.04V21.9233H66.5099ZM68.7514 21.9176V18.1472H70.2214V21.9176H68.7514ZM78.2643 18.1472L79.9195 20.1447V18.1472H81.3923V21.9176H79.7371L77.7117 19.6145V21.9176H76.2417V18.1472H78.2643ZM81.5045 21.9233H83.1596L83.4571 21.278H85.3448L85.6428 21.9233H87.2975L85.2753 18.1529H83.5272L81.5045 21.9233ZM87.4127 21.9176V18.1472H88.8826V20.7225H91.8254V21.9176H87.4127ZM32.9377 40.7224C32.2617 40.7224 31.4323 40.822 31.4323 41.2657C31.4323 41.5104 32.1083 41.5436 32.9833 41.585L32.9929 41.5855C34.5475 41.6643 36.7239 41.7745 36.7198 43.1691C36.7198 44.7616 34.8951 45.1391 32.9377 45.1391C30.9845 45.1349 29.363 44.8985 29.1556 43.1691H31.4323C31.6811 43.6005 32.2575 43.7124 32.9377 43.7124C33.6137 43.7124 34.4431 43.6005 34.4431 43.1691C34.4431 42.9245 33.7671 42.8872 32.8921 42.8458L32.8824 42.8453C31.3278 42.7665 29.1514 42.6563 29.1556 41.2657C29.1556 39.6733 30.9803 39.2917 32.9377 39.2917C34.8909 39.3041 36.5124 39.5239 36.7198 41.2657H34.4431C34.1942 40.8261 33.6178 40.7224 32.9377 40.7224ZM41.5428 41.2035V45.0104H39.3697V41.2035H36.7861V39.4369H44.1264V41.2035H41.5428ZM42.6831 45.0104H45.1299L45.5695 44.0567H48.3605L48.8 45.0104H51.2468L48.2568 39.4369H45.6732L42.6831 45.0104ZM54.4068 39.4286L56.8536 42.3812V39.4286H59.0308V45.0022H56.584L53.5898 41.5975V45.0022H51.4168V39.4286H54.4068ZM60.2997 39.4369V45.0104H65.2596C66.7898 45.0312 67.9261 43.7374 67.9136 42.2236C67.9261 40.7017 66.7898 39.4162 65.2596 39.4369H60.2997ZM69.9291 45.0104H67.4824L70.4724 39.4369H73.056L76.0459 45.0104H73.5992L73.1596 44.0567H70.3687L69.9291 45.0104ZM76.216 39.4327V45.0064H78.3891V43.6461H80.3299L81.379 45.0064H83.693L82.478 43.4429C82.843 43.2728 83.1374 43.0158 83.3571 42.6798C83.5811 42.3398 83.693 41.9582 83.693 41.5394C83.7096 40.3865 82.7351 39.4203 81.5864 39.4327H76.216ZM84.369 45.0104V39.4369H89.3286C90.8591 39.4162 91.9953 40.7017 91.9834 42.2236C91.9953 43.7374 90.8591 45.0312 89.3286 45.0104H84.369ZM45.5925 36.5303H41.2672V32.4437L39.4745 36.5303H35.8061L34.0417 32.4647V36.5303H29.7029V25.0062H35.1783L37.6641 30.7454L40.2718 25.0062H45.5925V36.5303ZM59.7021 36.5303H47.6085V25.0062H59.6072V28.5451H52.0694V29.0327H59.3903V32.5038H52.0694V33.0049H59.7021V36.5303ZM75.0639 36.5303H71.306L71.2429 35.8461C70.3009 36.3811 69.0256 36.693 67.3834 36.693C65.0472 36.693 63.0028 35.9943 61.8291 34.4754C61.1309 33.5794 60.7333 32.2697 60.7333 30.7885C60.7333 29.4391 61.0785 28.1987 61.8562 27.1967L61.8587 27.1935L61.8613 27.1904C63.0426 25.7248 65.1301 24.8164 68.1019 24.8164C71.4986 24.8164 73.6634 25.8602 74.6117 27.7876L74.6125 27.7891L74.6132 27.7906C74.8337 28.2473 74.953 28.8506 74.9685 29.239L74.9728 29.3444H75.0639V36.5303ZM81.1732 34.5645L80.1836 36.5303H75.3402L81.4912 25.0062H86.4066L92.2197 36.5303H87.3064L86.3718 34.5645H81.1732ZM29.0728 50.7231H92.175V49.1745H29.0728V50.7231Z" fill="#FF9900"/>
<path fill-rule="evenodd" clip-rule="evenodd" d="M31.7832 2.48633H114.94C130.847 2.48633 143.742 15.3817 143.742 31.289C143.742 47.1964 130.847 60.0918 114.94 60.0918H31.7832C15.8758 60.0918 2.98047 47.1964 2.98047 31.289C2.98047 15.3817 15.8758 2.48633 31.7832 2.48633ZM31.7832 5.27374C17.4153 5.27374 5.76788 16.9212 5.76788 31.289C5.76788 45.6569 17.4153 57.3045 31.7832 57.3045H114.94C129.307 57.3045 140.954 45.6569 140.954 31.289C140.954 16.9212 129.307 5.27374 114.94 5.27374H31.7832Z" fill="#FF9900"/>
</svg>
