<svg width="146" height="74" viewBox="0 0 146 74" fill="none" xmlns="http://www.w3.org/2000/svg">
<path d="M11.3836 16.1357C10.4831 13.8471 10.874 11.2155 11.7035 9.00226C12.5763 6.67335 14.0959 4.35082 16.3673 3.12598C16.48 5.58019 15.7302 8.00493 14.9111 10.1914C14.1744 12.158 13.2705 14.2532 11.7779 15.8796C11.5486 17.1119 11.3728 18.3409 11.2492 19.5642C11.7439 18.2718 12.5461 17.0939 13.5469 16.1468C14.8355 14.9272 16.7524 13.9861 18.5517 14.5426C18.0247 16.5316 16.8234 18.4383 15.4007 19.7758C14.2809 20.8285 12.8026 22.1776 11.0614 22.2306C10.9897 24.0308 11.0302 25.8145 11.1783 27.574C11.424 26.2864 11.9503 25.0739 12.7108 24.171C13.7554 22.9302 15.3044 21.4144 17.2827 21.668C17.1747 23.6811 16.3717 25.7436 15.2534 27.2935C14.3648 28.5252 13.1917 30.0949 11.5266 30.5004C11.7932 32.2293 12.1646 33.9296 12.6358 35.5933C12.6403 34.3194 12.9217 33.069 13.4799 32.0662C14.2666 30.6519 15.4918 28.8883 17.4723 28.7504C17.7626 30.7254 17.3693 32.8843 16.5758 34.6014C15.9416 35.974 15.0961 37.7243 13.5549 38.4485C14.2021 40.2385 14.9679 41.9784 15.8461 43.6578C15.5378 42.2103 15.5501 40.685 15.9149 39.3126C16.4177 37.4205 17.6658 35.4331 19.6696 34.8563C20.3779 36.9451 20.2802 39.2763 19.8687 41.3994C19.5301 43.1474 18.8647 45.2005 17.3732 46.336C18.3483 47.9096 19.427 49.4197 20.6034 50.8566C19.9713 49.4474 19.6572 47.9062 19.8258 46.4951C20.0713 44.4394 20.6489 42.2404 22.7486 41.1444C23.9398 43.1997 24.2158 45.5055 24.317 47.783C24.3988 49.6241 24.1336 51.8951 22.8549 53.3929C24.2615 54.8553 25.7792 56.224 27.4002 57.4862C26.3537 56.1437 25.6208 54.5683 25.4656 53.0103C25.2465 50.8092 25.3536 48.386 27.3071 46.7706C28.9777 48.5155 29.9746 51.0853 30.4632 53.3172C30.8953 55.2906 31.3463 57.6264 30.3176 59.5684C32.3806 60.915 34.583 62.1015 36.9114 63.1062C35.273 61.9386 33.9318 60.3367 33.2928 58.6828C32.4555 56.5148 31.9375 53.9314 33.5686 51.7601C35.7539 53.1599 37.3601 55.5481 38.6255 57.7261C39.7112 59.5951 40.8352 62.1746 40.2775 64.4005C41.5667 64.8379 42.8892 65.222 44.2433 65.5498L44.1628 65.8822C42.8036 65.5532 41.476 65.1678 40.1816 64.729C39.2747 67.4091 36.3038 68.2944 33.9012 68.6854C30.4778 69.2423 26.4016 68.1632 23.479 65.9893C25.0215 63.8094 28.1687 63.5883 30.5419 63.4214L30.5728 63.4193C33.1726 63.2366 35.9844 63.4807 38.5988 64.1599C35.5786 63.0102 32.7526 61.5647 30.1467 59.8653L30.1083 59.9259C28.6803 62.2414 25.8133 62.3317 23.5629 62.1852C20.5093 61.9865 16.9837 60.1298 14.9433 57.5631C16.8625 55.8792 19.6973 56.3505 21.8939 56.7156L21.9045 56.7173C24.356 57.1249 27.0349 58.0139 29.2836 59.3828C29.0694 59.2141 28.8598 59.0356 28.6561 58.8485C26.4698 57.2897 24.453 55.5461 22.6229 53.645C22.6016 53.6662 22.5801 53.6873 22.5584 53.7083C20.7789 55.4984 18.1872 55.0297 16.1646 54.4471C13.4579 53.6675 10.6509 51.3155 9.30571 48.6153C11.3902 47.4473 13.8825 48.4098 15.821 49.1711C17.9486 50.0067 20.1997 51.3434 21.9306 53.0473C21.7521 52.8222 21.5819 52.5871 21.421 52.3437C19.8122 50.5279 18.3649 48.5836 17.0926 46.5323L17.0288 46.5723C15.0157 47.8714 12.7349 46.9307 10.9272 46.0055C8.4762 44.7511 6.50662 41.9944 5.65557 39.2834C7.82983 38.587 9.97802 39.9538 11.6479 41.0364C13.4744 42.2202 15.3244 43.9087 16.5943 45.8451C16.5011 45.6544 16.4142 45.4593 16.3341 45.2606C15.1139 43.1318 14.0774 40.897 13.2382 38.5787L13.195 38.5935L13.1914 38.5948C11.361 39.2906 9.32272 38.2088 7.99384 37.0224C6.14686 35.3736 4.84505 32.8387 4.53987 30.3622C6.44822 30.115 8.24615 31.5914 9.47538 32.8507C10.8903 34.3001 12.1602 36.0131 12.941 37.9158C12.884 37.7091 12.8351 37.4992 12.794 37.2871C12.0835 35.1086 11.5453 32.8619 11.1905 30.565L11.1629 30.5684L11.1535 30.57C9.21839 30.8931 7.42925 29.4219 6.36034 27.994C4.86065 25.9904 4.08756 23.2174 4.28132 20.7041C6.20895 20.8389 7.67675 22.6727 8.62858 24.1561C9.73024 25.8733 10.6438 27.8168 11.044 29.8501C11.0318 29.6883 11.0245 29.5256 11.022 29.3625C10.7281 27.0248 10.6234 24.6391 10.7192 22.2241L10.7137 22.2238C8.74623 22.1529 7.29218 20.3262 6.54149 18.7059C5.46733 16.3872 5.29439 13.4563 6.01135 10.9862C7.88653 11.5125 8.93192 13.6635 9.54895 15.3192C10.2604 17.2283 10.7569 19.3104 10.7609 21.3805C10.8632 19.6438 11.0693 17.8934 11.3836 16.1357Z" fill="#FF9900"/>
<path d="M50.1349 11.8511V20.143C50.1349 23.79 46.8319 25.5447 41.8258 25.5447C37.1466 25.5447 33.792 23.8073 33.792 19.713V11.8511H38.4541V19.713C38.4541 21.1752 39.7098 22.0869 42.0151 22.0869C44.2171 22.0869 45.5246 21.1408 45.5246 19.7301V11.8511H50.1349Z" fill="#FF9900"/>
<path d="M65.6586 21.7601V25.3555H52.7734V11.8511H57.4355V21.7601H65.6586Z" fill="#FF9900"/>
<path d="M79.5178 15.2401V11.8511H63.3984V15.2401H69.0927V25.3555H73.8064V15.2401H79.5178Z" fill="#FF9900"/>
<path fill-rule="evenodd" clip-rule="evenodd" d="M96.0544 13.2274C96.6738 13.8639 96.9672 14.7413 96.9672 15.9626C96.9672 17.0121 96.7093 17.9067 96.2783 18.5087C95.7964 19.1624 95.0565 19.713 94.1451 19.8506L98.2231 25.3555H93.0961L89.741 20.5902H85.5611V25.3555H80.9678V11.8511H91.7198C93.8531 11.8511 95.2464 12.3672 96.0544 13.2274ZM92.3392 17.0981C92.4597 16.8916 92.4937 16.6163 92.4937 16.3928C92.4937 16.1347 92.4597 15.8594 92.3392 15.6875C92.0982 15.2401 91.6163 15.1198 90.8934 15.1198H85.5783V17.5798H90.9798C91.7197 17.5798 92.1677 17.4422 92.3392 17.0981Z" fill="#FF9900"/>
<path fill-rule="evenodd" clip-rule="evenodd" d="M104.427 22.8612H111.722L112.908 25.3555H117.88L111.068 11.8511H105.512L98.3037 25.3555H103.171L104.427 22.8612ZM110.259 19.8333H105.941L107.645 16.582L108.161 15.3433L108.643 16.5647L110.259 19.8333Z" fill="#FF9900"/>
<path fill-rule="evenodd" clip-rule="evenodd" d="M95.5604 27.8989C92.6744 27.8989 91.1562 29.2668 91.1562 31.2768C91.1562 33.5454 92.7495 34.6963 95.5604 34.6963C98.6547 34.6963 99.9559 33.3619 99.9559 31.2768C99.9559 29.1584 98.4874 27.8989 95.5604 27.8989ZM95.5604 33.02C93.9175 33.02 93.4412 32.3444 93.4412 31.3019C93.4412 30.276 93.9586 29.6005 95.5518 29.6005C97.2953 29.6005 97.6866 30.3594 97.6866 31.3019C97.6866 32.3027 97.2117 33.02 95.5604 33.02Z" fill="#FF9900"/>
<path d="M86.877 34.5965V30.7182H82.5234V32.1278H84.8503C84.8337 32.2362 84.7503 32.4447 84.6418 32.5697C84.4 32.8534 83.7577 33.1036 82.9237 33.1036C82.0563 33.1036 81.4976 32.8783 81.1974 32.5281C80.9972 32.2695 80.8804 31.9025 80.8804 31.3521C80.8804 30.7766 80.9972 30.3847 81.2223 30.1262C81.5476 29.7592 82.098 29.6007 82.9071 29.6007C83.6327 29.6007 84.1331 29.7674 84.3667 29.9759C84.5168 30.1011 84.6335 30.2763 84.6585 30.3929H86.8186C86.8104 30.1844 86.7437 29.8509 86.6269 29.6091C86.1098 28.5581 84.9087 27.9326 82.8654 27.9326C81.0889 27.9326 79.8963 28.4747 79.2374 29.2921C78.8037 29.8509 78.6035 30.5514 78.6035 31.3354C78.6035 32.2029 78.837 32.9451 79.2207 33.4372C79.8712 34.2796 81.0305 34.6965 82.4233 34.6965C83.6494 34.6965 84.4917 34.4047 85.0255 33.9627L85.0839 34.5965H86.877Z" fill="#FF9900"/>
<path d="M64.159 30.6348C65.852 30.8182 66.5777 31.4188 66.5777 32.5614C66.5777 33.9459 65.2265 34.6964 62.5659 34.6964C60.0889 34.6964 59.0214 33.9959 58.6126 33.0785C58.5209 32.8616 58.4792 32.5947 58.4541 32.4279H60.8562C60.8729 32.528 60.9313 32.6781 61.0146 32.7781C61.2148 33.0201 61.7735 33.1618 62.7244 33.1618C63.9505 33.1618 64.2424 32.9866 64.2424 32.6615C64.2424 32.3111 63.9421 32.2361 62.8328 32.1193C62.3909 32.0776 61.6902 32.0109 61.3983 31.9859C59.2799 31.794 58.4959 31.1351 58.4959 30.0092C58.4959 28.8415 59.8804 27.9492 62.4074 27.9492C64.651 27.9492 65.6936 28.6164 66.1273 29.4505C66.2607 29.7007 66.3441 29.9841 66.3691 30.1843H63.9671C63.9587 30.0926 63.9254 30.0009 63.8337 29.8841C63.6501 29.6423 63.1831 29.4838 62.349 29.4838C61.1731 29.4838 60.8645 29.6255 60.8645 29.9257C60.8645 30.2594 61.2566 30.3345 62.5659 30.4763C63.0747 30.518 63.8837 30.6013 64.159 30.6348Z" fill="#FF9900"/>
<path fill-rule="evenodd" clip-rule="evenodd" d="M40.2173 28.6081C40.6593 28.9583 40.9094 29.5506 40.9094 30.4096C40.9094 31.1102 40.7344 31.6355 40.4007 32.0025C39.9504 32.5196 39.208 32.7532 38.2406 32.7616C37.9403 32.7699 35.3715 32.7616 35.3715 32.7616V34.5964H33.1279V28.0493H38.2072C39.108 28.0493 39.7919 28.2327 40.2173 28.6081ZM38.5576 30.9183C38.6242 30.8016 38.6576 30.6514 38.6576 30.4429C38.6576 30.2261 38.6158 30.0426 38.5408 29.9425C38.3991 29.734 38.1322 29.6339 37.6984 29.6339H35.3548V31.2352H37.6817C38.1488 31.2352 38.424 31.1268 38.5576 30.9183Z" fill="#FF9900"/>
<path fill-rule="evenodd" clip-rule="evenodd" d="M49.1133 28.7165C49.4136 29.0251 49.5554 29.4505 49.5554 30.0426C49.5554 30.5513 49.4302 30.9851 49.2217 31.2769C48.9883 31.5939 48.6296 31.8608 48.1875 31.9275L50.1642 34.5964H47.6788L46.0524 32.2862H44.0257V34.5964H41.7988V28.0493H47.0116C48.0458 28.0493 48.7214 28.2995 49.1133 28.7165ZM47.3118 30.5931C47.3702 30.493 47.3868 30.3595 47.3868 30.2511C47.3868 30.1261 47.3702 29.9925 47.3118 29.9092C47.195 29.6923 46.9616 29.6339 46.6113 29.6339H44.034V30.8266H46.653C47.0116 30.8266 47.2285 30.7598 47.3118 30.5931Z" fill="#FF9900"/>
<path d="M57.7773 34.5964V32.9701H53.0818V32.1193H57.5855V30.5264H53.0818V29.6839H57.7189V28.0493H50.8799V34.5964H57.7773Z" fill="#FF9900"/>
<path d="M74.6967 29.6923V28.0493H66.8818V29.6923H69.6424V34.5964H71.9276V29.6923H74.6967Z" fill="#FF9900"/>
<path d="M77.6969 28.0493V34.5964H75.4033V28.0493H77.6969Z" fill="#FF9900"/>
<path d="M90.2491 28.0493V34.5964H87.9551V28.0493H90.2491Z" fill="#FF9900"/>
<path d="M108.808 28.0493V32.0693C108.808 33.8374 107.207 34.6882 104.78 34.6882C102.512 34.6882 100.885 33.8458 100.885 31.8608V28.0493H103.146V31.8608C103.146 32.5696 103.754 33.0118 104.872 33.0118C105.939 33.0118 106.573 32.5531 106.573 31.8691V28.0493H108.808Z" fill="#FF9900"/>
<path d="M117.812 32.5614C117.812 31.4188 117.086 30.8182 115.394 30.6348C115.117 30.6013 114.309 30.518 113.801 30.4763C112.491 30.3345 112.098 30.2594 112.098 29.9257C112.098 29.6255 112.407 29.4838 113.584 29.4838C114.417 29.4838 114.885 29.6423 115.068 29.8841C115.16 30.0009 115.193 30.0926 115.201 30.1843H117.604C117.578 29.9841 117.495 29.7007 117.361 29.4505C116.928 28.6164 115.886 27.9492 113.642 27.9492C111.114 27.9492 109.73 28.8415 109.73 30.0092C109.73 31.1351 110.515 31.794 112.633 31.9859L112.769 31.998L112.995 32.0187L114.067 32.1193C115.177 32.2361 115.476 32.3111 115.476 32.6615C115.476 32.9866 115.185 33.1618 113.959 33.1618C113.008 33.1618 112.45 33.0201 112.248 32.7781C112.166 32.6781 112.107 32.528 112.091 32.4279H109.688C109.714 32.5947 109.755 32.8616 109.847 33.0785C110.255 33.9959 111.323 34.6964 113.801 34.6964C116.461 34.6964 117.812 33.9459 117.812 32.5614Z" fill="#FF9900"/>
<path fill-rule="evenodd" clip-rule="evenodd" d="M59.489 37.103C57.6135 37.103 56.627 37.9921 56.627 39.2984C56.627 40.7727 57.6623 41.5207 59.489 41.5207C61.5001 41.5207 62.3456 40.6535 62.3456 39.2984C62.3456 37.9216 61.3917 37.103 59.489 37.103ZM59.489 40.4313C58.4212 40.4313 58.1122 39.9921 58.1122 39.3146C58.1122 38.6479 58.4483 38.2088 59.4836 38.2088C60.6164 38.2088 60.8713 38.7021 60.8713 39.3146C60.8713 39.9651 60.5623 40.4313 59.489 40.4313Z" fill="#FF9900"/>
<path d="M49.0551 40.1333C49.0551 39.3907 48.5835 39.0003 47.4831 38.8811C47.3042 38.8594 46.7785 38.8052 46.4478 38.7782C45.5967 38.6859 45.342 38.6371 45.342 38.4204C45.342 38.2252 45.5426 38.1331 46.3069 38.1331C46.8489 38.1331 47.1524 38.236 47.2717 38.3932C47.3313 38.4692 47.353 38.5287 47.3585 38.5884H48.9196C48.9033 38.4582 48.8491 38.274 48.7624 38.1114C48.4804 37.5693 47.8029 37.1357 46.3447 37.1357C44.7024 37.1357 43.8026 37.7156 43.8026 38.4745C43.8026 39.2064 44.312 39.6346 45.6888 39.7592C45.8786 39.7755 46.3339 39.8189 46.6213 39.846C47.3422 39.9218 47.5372 39.9707 47.5372 40.1983C47.5372 40.4097 47.3476 40.5235 46.5508 40.5235C45.9328 40.5235 45.5696 40.4314 45.4395 40.2742C45.3854 40.2091 45.3474 40.1116 45.3366 40.0465H43.7754C43.7917 40.155 43.8188 40.3283 43.8784 40.4694C44.1441 41.0656 44.8379 41.5208 46.4478 41.5208C48.1769 41.5208 49.0551 41.0331 49.0551 40.1333Z" fill="#FF9900"/>
<path fill-rule="evenodd" clip-rule="evenodd" d="M38.2347 40.2525C38.2347 40.5452 38.1534 40.8325 37.9908 41.0222C37.7414 41.3258 37.2752 41.4558 36.6736 41.4558H32.8955V37.2007H36.5706C37.156 37.2007 37.5301 37.3417 37.736 37.5531C37.9203 37.7373 38.0017 37.9813 38.0017 38.2577C38.0017 38.5342 37.9366 38.7619 37.7957 38.9299C37.6818 39.0709 37.4867 39.1792 37.2808 39.2064C37.5842 39.2443 37.8716 39.3961 38.0341 39.6074C38.1697 39.7646 38.2347 40.0032 38.2347 40.2525ZM36.408 38.7619C36.4622 38.7022 36.4948 38.6155 36.4948 38.5126C36.4948 38.4095 36.4622 38.3228 36.3917 38.2632C36.3159 38.1926 36.1748 38.1656 35.9689 38.1656H34.3157V38.8594H36.0069C36.1911 38.8594 36.3322 38.8323 36.408 38.7619ZM36.1641 40.4911C36.4188 40.4911 36.5706 40.4585 36.6573 40.3772C36.7115 40.323 36.7332 40.2417 36.7332 40.1387C36.7332 40.0302 36.7061 39.949 36.641 39.884C36.5598 39.8135 36.4188 39.7809 36.1804 39.7809H34.3157V40.4911H36.1641Z" fill="#FF9900"/>
<path d="M43.3363 40.3984V41.4553H38.8535V37.2002H43.2983V38.2627H40.2845V38.8102H43.2115V39.8455H40.2845V40.3984H43.3363Z" fill="#FF9900"/>
<path d="M54.3309 37.2007V38.2686H52.5313V41.4558H51.0462V38.2686H49.252V37.2007H54.3309Z" fill="#FF9900"/>
<path d="M67.3033 37.2007V38.2794H64.4142V38.8811H67.1678V39.949H64.4142V41.4558H62.9561V37.2007H67.3033Z" fill="#FF9900"/>
<path d="M74.6463 38.2681V37.2002H69.5674V38.2681H71.3616V41.4553H72.8469V38.2681H74.6463Z" fill="#FF9900"/>
<path d="M80.189 37.2002V41.4553H78.7362V39.9106H76.5571V41.4553H75.1045V37.2002H76.5571V38.7505H78.7362V37.2002H80.189Z" fill="#FF9900"/>
<path d="M85.5336 41.4558V40.3989H82.4817V39.846H85.4088V38.8107H82.4817V38.2632H85.4956V37.2007H81.0508V41.4558H85.5336Z" fill="#FF9900"/>
<path d="M94.5176 37.2002H95.9209L94.366 41.4553H92.7727C92.7727 41.4553 91.9208 38.9132 91.9151 38.8426C91.9109 38.9132 91.0533 41.4553 91.0533 41.4553H89.4657L87.8721 37.2002H89.4487C89.4487 37.2002 90.3715 39.8779 90.3715 39.943C90.3715 39.8779 91.222 37.2002 91.222 37.2002H92.7458C92.7458 37.2002 93.6019 39.8779 93.6019 39.943C93.6019 39.8779 94.5176 37.2002 94.5176 37.2002Z" fill="#FF9900"/>
<path fill-rule="evenodd" clip-rule="evenodd" d="M98.7076 37.103C96.8323 37.103 95.8457 37.9921 95.8457 39.2984C95.8457 40.7727 96.8805 41.5207 98.7076 41.5207C100.719 41.5207 101.564 40.6535 101.564 39.2984C101.564 37.9216 100.61 37.103 98.7076 37.103ZM98.7076 40.4313C97.6402 40.4313 97.3312 39.9921 97.3312 39.3146C97.3312 38.6479 97.6672 38.2088 98.7019 38.2088C99.8359 38.2088 100.09 38.7021 100.09 39.3146C100.09 39.9651 99.7806 40.4313 98.7076 40.4313Z" fill="#FF9900"/>
<path fill-rule="evenodd" clip-rule="evenodd" d="M106.929 37.6339C107.123 37.8345 107.215 38.1109 107.215 38.4958C107.215 38.8265 107.135 39.1083 106.998 39.2981C106.847 39.504 106.614 39.6775 106.327 39.7208L107.611 41.4553H105.996L104.939 39.9539H103.622V41.4553H102.175V37.2002H105.563C106.234 37.2002 106.674 37.3629 106.929 37.6339ZM105.758 38.8535C105.795 38.7885 105.806 38.7017 105.806 38.6313C105.806 38.5499 105.795 38.4633 105.758 38.409C105.682 38.2681 105.53 38.2301 105.302 38.2301H103.628V39.0054H105.329C105.563 39.0054 105.703 38.962 105.758 38.8535Z" fill="#FF9900"/>
<path d="M112.137 41.4558V40.323H109.546V37.2007H108.077V41.4558H112.137Z" fill="#FF9900"/>
<path fill-rule="evenodd" clip-rule="evenodd" d="M117.888 39.2496C117.888 39.911 117.823 40.2688 117.628 40.6049C117.335 41.1414 116.755 41.4558 115.73 41.4558H112.717V37.2007H115.698C116.717 37.2007 117.319 37.488 117.617 37.9813C117.828 38.312 117.888 38.6642 117.888 39.2496ZM115.454 40.4097C115.915 40.4097 116.175 40.3013 116.333 40.0628C116.431 39.9164 116.458 39.575 116.458 39.2769C116.452 39.0058 116.419 38.7185 116.333 38.5884C116.164 38.3337 115.91 38.2415 115.465 38.2415H114.17V40.4097H115.454Z" fill="#FF9900"/>
<path d="M59.7383 62.1504H57.4921C57.4921 62.1504 56.0265 66.4347 56.0265 66.5388C56.0265 66.4347 54.6562 62.1504 54.6562 62.1504H52.2191C52.2191 62.1504 50.8575 66.4347 50.8575 66.5388C50.8575 66.4347 49.3832 62.1504 49.3832 62.1504H46.8594L49.4091 68.9584H51.9502C51.9502 68.9584 53.3205 64.8909 53.3292 64.7783C53.3379 64.8909 54.6994 68.9584 54.6994 68.9584H57.2492L59.7383 62.1504Z" fill="#FF9900"/>
<path d="M62.8108 68.9584V62.1504H60.4258V68.9584H62.8108Z" fill="#FF9900"/>
<path d="M72.0868 62.1504V68.9584H69.7624L66.3889 65.1685V68.9584H64.1514V62.1504H66.5969L69.8665 65.8537V62.1504H72.0868Z" fill="#FF9900"/>
<path d="M81.3788 68.9584V62.1504H79.1586V65.8537L75.8891 62.1504H73.4434V68.9584H75.6808V65.1685L79.0546 68.9584H81.3788Z" fill="#FF9900"/>
<path d="M89.9074 67.2672V68.9584H82.7344V62.1504H89.8464V63.8502H85.024V64.7262H89.7075V66.3827H85.024V67.2672H89.9074Z" fill="#FF9900"/>
<path fill-rule="evenodd" clip-rule="evenodd" d="M99.0772 64.2232C99.0772 63.6074 98.9297 63.1652 98.6179 62.8442C98.2097 62.4106 97.508 62.1504 96.4321 62.1504H91.0117V68.9584H93.3279V66.556H95.4357L97.1267 68.9584H99.7108L97.6554 66.1833C98.1147 66.1138 98.4875 65.8363 98.7313 65.5067C98.9467 65.2032 99.0772 64.7522 99.0772 64.2232ZM96.822 64.44C96.822 64.5527 96.8049 64.6915 96.744 64.7955C96.6575 64.969 96.4321 65.0384 96.0593 65.0384H93.3364V63.7982H96.0154C96.3797 63.7982 96.6235 63.8589 96.744 64.0844C96.8049 64.1711 96.822 64.3099 96.822 64.44Z" fill="#FF9900"/>
<path d="M52.8145 50.1394L51.874 47.2446L50.9334 50.1394H47.8896L50.3521 51.9284L49.4116 54.8232L51.874 53.0342L54.3363 54.8232L53.3958 51.9284L55.8583 50.1394H52.8145Z" fill="#FF9900"/>
<path d="M62.7306 47.2427L63.6904 50.1374H66.7962L64.2836 51.9266L65.2434 54.8212L62.7306 53.0322L60.218 54.8212L61.1778 51.9266L58.665 50.1374H61.7709L62.7306 47.2427Z" fill="#FF9900"/>
<path d="M74.4648 50.1374L73.5052 47.2427L72.5454 50.1374H69.4395L71.9522 51.9266L70.9924 54.8212L73.5052 53.0322L76.0178 54.8212L75.058 51.9266L77.5708 50.1374H74.4648Z" fill="#FF9900"/>
<path d="M84.2746 47.2427L85.2344 50.1374H88.3402L85.8276 51.9266L86.7873 54.8212L84.2746 53.0322L81.762 54.8212L82.7217 51.9266L80.209 50.1374H83.315L84.2746 47.2427Z" fill="#FF9900"/>
<path d="M96.0761 50.1374L95.1349 47.2427L94.1937 50.1374H91.1504L93.6125 51.9266L92.6728 54.8212L95.1349 53.0322L97.5971 54.8212L96.6573 51.9266L99.1194 50.1374H96.0761Z" fill="#FF9900"/>
<path d="M135.566 16.1985C136.466 13.91 136.075 11.2782 135.246 9.0649C134.372 6.73613 132.853 4.41332 130.582 3.18848C130.469 5.64284 131.219 8.06743 132.038 10.2539C132.775 12.2203 133.678 14.3154 135.171 15.9416C135.4 17.1737 135.576 18.4024 135.699 19.6254C135.205 18.3336 134.404 17.1563 133.403 16.2094C132.114 14.9897 130.197 14.0488 128.398 14.6053C128.925 16.5941 130.126 18.5009 131.549 19.8384C132.669 20.8912 134.147 22.2401 135.888 22.2932C135.96 24.0936 135.919 25.8774 135.77 27.6371C135.525 26.3495 134.999 25.137 134.238 24.234C133.193 22.9932 131.644 21.4775 129.666 21.731C129.774 23.7441 130.578 25.8067 131.696 27.3566C132.584 28.5882 133.757 30.1581 135.423 30.5636C135.156 32.2922 134.785 33.9922 134.313 35.6558C134.309 34.382 134.028 33.1317 133.47 32.1288C132.683 30.7147 131.457 28.951 129.477 28.813C129.186 30.788 129.58 32.947 130.374 34.6641C131.007 36.0366 131.854 37.7869 133.394 38.5111C132.747 40.3014 131.981 42.0418 131.102 43.7213C131.411 42.2735 131.399 40.7479 131.034 39.3751C130.531 37.483 129.284 35.4954 127.279 34.9188C126.571 37.0079 126.668 39.3388 127.081 41.4619C127.42 43.2101 128.085 45.2631 129.576 46.3987C128.601 47.9731 127.522 49.4839 126.344 50.9215C126.977 49.5117 127.291 47.9697 127.122 46.558C126.877 44.5021 126.3 42.3032 124.201 41.2074C123.009 43.2628 122.732 45.5686 122.632 47.846C122.549 49.6873 122.814 51.9584 124.094 53.4564C122.687 54.9184 121.17 56.2867 119.55 57.5485C120.596 56.206 121.329 54.6308 121.483 53.073C121.703 50.8718 121.597 48.4488 119.642 46.8333C117.972 48.5782 116.974 51.1479 116.487 53.3799C116.054 55.3531 115.604 57.689 116.631 59.6311C114.569 60.978 112.366 62.1645 110.037 63.1695C111.676 62.0018 113.017 60.3996 113.656 58.7454C114.494 56.5776 115.011 53.9941 113.381 51.8228C111.195 53.2225 109.589 55.6106 108.324 57.7888C107.238 59.6579 106.114 62.2375 106.672 64.4634C105.382 64.9008 104.06 65.285 102.706 65.6127L102.787 65.9451C104.145 65.6161 105.473 65.2307 106.767 64.792C107.674 67.4718 110.645 68.3575 113.048 68.7483C116.471 69.3052 120.548 68.2262 123.471 66.0522C121.927 63.8723 118.78 63.6512 116.407 63.4843L116.376 63.4822C113.777 63.2995 110.964 63.5436 108.35 64.223C111.37 63.0733 114.196 61.6275 116.803 59.9279L116.838 59.9846C118.266 62.3039 121.135 62.3946 123.386 62.248C126.44 62.0493 129.966 60.1925 132.005 57.6259C130.086 55.9422 127.252 56.4133 125.055 56.7783L125.044 56.7803C122.593 57.1876 119.916 58.0763 117.668 59.4447C117.882 59.2761 118.09 59.098 118.294 58.911C120.48 57.3525 122.495 55.6091 124.325 53.7083C124.351 53.7337 124.376 53.7586 124.402 53.7834C126.182 55.5597 128.766 55.091 130.785 54.5097C133.492 53.7301 136.299 51.3781 137.644 48.678C135.559 47.51 133.067 48.4723 131.129 49.2338C128.999 50.0701 126.746 51.4083 125.014 53.1145C125.193 52.8891 125.364 52.6536 125.526 52.4098C127.135 50.593 128.583 48.6475 129.856 46.595L129.912 46.6291L129.926 46.6381C131.937 47.9325 134.217 46.9926 136.022 46.0681C138.473 44.8138 140.444 42.0571 141.294 39.346C139.12 38.6496 136.972 40.0165 135.302 41.099C133.474 42.2836 131.623 43.9732 130.352 45.911C130.446 45.7198 130.534 45.5242 130.615 45.3251C131.835 43.1956 132.871 40.9602 133.711 38.6414L133.754 38.6561L133.762 38.659C135.591 39.3517 137.628 38.2706 138.957 37.085C140.802 35.4362 142.105 32.9013 142.41 30.4248C140.502 30.1776 138.703 31.6541 137.474 32.9132C136.059 34.3636 134.788 36.0777 134.007 37.982C134.065 37.7742 134.114 37.5631 134.156 37.3498C134.866 35.1714 135.404 32.9248 135.759 30.6283L135.813 30.6353C137.74 30.9475 139.524 29.4805 140.59 28.0567C142.089 26.0531 142.862 23.2801 142.668 20.7666C140.741 20.9015 139.273 22.7352 138.322 24.2187C137.219 25.9368 136.304 27.8815 135.905 29.916C135.918 29.7532 135.925 29.5897 135.927 29.4255C136.221 27.0877 136.326 24.7019 136.229 22.2868C138.198 22.2178 139.657 20.3898 140.408 18.7688C141.481 16.4502 141.654 13.5192 140.938 11.0492C139.063 11.5755 138.017 13.7263 137.4 15.382C136.689 17.2911 136.193 19.3735 136.188 21.4436C136.086 19.7069 135.879 17.9563 135.566 16.1985Z" fill="#FF9900"/>
</svg>
