<svg width="48" height="48" viewBox="0 0 48 48" fill="none" xmlns="http://www.w3.org/2000/svg">
<g clip-path="url(#clip0_6114_2668)">
<path d="M48 48H0V0H48V48Z" fill="#FF9900"/>
<path d="M23.6094 11.5781C27.5625 11.5781 27.9922 11.5781 29.5391 11.6641C31 11.75 31.7734 12.0078 32.2891 12.1797C32.9766 12.4375 33.4922 12.7812 34.0078 13.2969C34.5234 13.8125 34.8672 14.3281 35.125 15.0156C35.2969 15.5312 35.5547 16.3047 35.6406 17.7656C35.6406 19.2266 35.6406 19.6562 35.6406 23.6094C35.6406 27.5625 35.6406 27.9922 35.5547 29.5391C35.4688 31 35.2109 31.7734 35.0391 32.2891C34.7812 32.9766 34.4375 33.4922 33.9219 34.0078C33.4062 34.5234 32.8906 34.8672 32.2031 35.125C31.6875 35.2969 30.9141 35.5547 29.4531 35.6406C27.9922 35.6406 27.5625 35.6406 23.6094 35.6406C19.6562 35.6406 19.2266 35.6406 17.6797 35.5547C16.2188 35.4688 15.4453 35.2109 14.9297 35.0391C14.2422 34.7812 13.7266 34.4375 13.2109 33.9219C12.6953 33.4062 12.3516 32.8906 12.0938 32.2031C11.9219 31.6875 11.6641 30.9141 11.5781 29.4531C11.5781 27.9922 11.5781 27.5625 11.5781 23.6094C11.5781 19.6562 11.5781 19.2266 11.6641 17.6797C11.75 16.2188 12.0078 15.4453 12.1797 14.9297C12.4375 14.2422 12.7812 13.7266 13.2969 13.2109C13.8125 12.6953 14.3281 12.3516 15.0156 12.0938C15.5312 11.9219 16.3047 11.6641 17.7656 11.5781C19.2266 11.5781 19.6562 11.5781 23.6094 11.5781ZM23.6094 9C19.6562 9 19.1406 9 17.5938 9.08594C16.0469 9.17188 15.0156 9.42969 14.0703 9.77344C13.125 10.1172 12.2656 10.6328 11.4922 11.4922C10.7187 12.3516 10.2031 13.125 9.77344 14.0703C9.42969 15.0156 9.17188 16.0469 9.08594 17.5938C9 19.1406 9 19.6562 9 23.6094C9 27.5625 9 28.0781 9.08594 29.625C9.17188 31.1719 9.42969 32.2031 9.77344 33.1484C10.1172 34.0937 10.6328 34.9531 11.4922 35.7266C12.2656 36.5 13.125 37.0156 14.0703 37.4453C15.0156 37.7891 16.0469 38.0469 17.5938 38.1328C19.1406 38.2188 19.6562 38.2188 23.6094 38.2188C27.5625 38.2188 28.0781 38.2188 29.625 38.1328C31.1719 38.0469 32.2031 37.7891 33.1484 37.4453C34.0937 37.1016 34.9531 36.5859 35.7266 35.7266C36.5 34.9531 37.0156 34.0937 37.4453 33.1484C37.7891 32.2031 38.0469 31.1719 38.1328 29.625C38.2188 28.0781 38.2188 27.5625 38.2188 23.6094C38.2188 19.6562 38.2188 19.1406 38.1328 17.5938C38.0469 16.0469 37.7891 15.0156 37.4453 14.0703C37.1016 13.125 36.5859 12.2656 35.7266 11.4922C34.8672 10.7187 34.0937 10.2031 33.1484 9.77344C32.2031 9.42969 31.1719 9.17188 29.625 9.08594C28.0781 9 27.5625 9 23.6094 9Z" fill="white"/>
<path d="M23.6094 15.875C19.3125 15.875 15.875 19.3125 15.875 23.6094C15.875 27.9062 19.3125 31.3438 23.6094 31.3438C27.9062 31.3438 31.3438 27.9062 31.3438 23.6094C31.3438 19.3125 27.9062 15.875 23.6094 15.875ZM23.6094 28.7656C20.7734 28.7656 18.4531 26.4453 18.4531 23.6094C18.4531 20.7734 20.7734 18.4531 23.6094 18.4531C26.4453 18.4531 28.7656 20.7734 28.7656 23.6094C28.7656 26.4453 26.4453 28.7656 23.6094 28.7656Z" fill="white"/>
<path d="M31.3438 17.5938C32.293 17.5938 33.0625 16.8242 33.0625 15.875C33.0625 14.9258 32.293 14.1562 31.3438 14.1562C30.3945 14.1562 29.625 14.9258 29.625 15.875C29.625 16.8242 30.3945 17.5938 31.3438 17.5938Z" fill="white"/>
</g>
<defs>
<clipPath id="clip0_6114_2668">
<rect width="48" height="48" rx="12" fill="white"/>
</clipPath>
</defs>
</svg>
