<svg width="48" height="48" viewBox="0 0 48 48" fill="none" xmlns="http://www.w3.org/2000/svg">
<g clip-path="url(#clip0_6114_2672)">
<path d="M48 48H0V0H48V48Z" fill="#FF9900"/>
<path d="M38.1667 13H28.25V16.1428H38.1667V13Z" fill="white"/>
<path d="M20.4753 23.1011C21.3041 22.6532 23.1713 21.6333 23.1713 18.6115C23.1713 12.9277 17.5726 13.0015 16.537 13.0015H7V35.0014H16.9521C17.7808 34.9999 24 34.7406 24 28.7126C24 24.8233 21.7192 23.5505 20.4753 23.1011ZM11.25 16.8154H15.398C15.8117 16.8154 18.5076 16.9788 18.5076 19.2856C18.5076 21.5909 16.435 21.9791 15.8131 21.9791H11.25V16.8154ZM15.976 31.1829H11.2061V25.1235H15.976C17.0116 25.1235 19.2924 25.4959 19.2924 28.2663C19.2924 31.0336 16.3897 31.1829 15.976 31.1829Z" fill="white"/>
<path d="M35.9542 30.9065C35.2954 31.3606 34.6381 31.5916 33.7597 31.5916C30.4646 31.5916 29.8087 28.51 29.8087 27.1445H41.0003C41.0003 25.7789 41.0003 24.77 40.7807 23.6308C40.5597 22.4915 39.0595 17.7144 33.5402 17.7144C25.8264 17.7144 25.417 25.2226 25.417 26.3572C25.417 27.4933 25.638 28.8605 26.0786 29.7687C26.5163 30.9065 26.9555 31.8179 27.6142 32.4967C28.2716 33.1803 29.1485 33.8576 30.0268 34.3149C31.1233 34.7722 32.2212 35 33.3192 35C35.073 35 36.6115 34.5474 37.9276 33.636C39.2465 32.7262 40.1234 31.3606 40.7807 29.5409H37.0507C36.8311 29.9966 36.6115 30.4492 35.9542 30.9065ZM33.5402 20.8996C35.6907 20.8996 36.6115 23.4013 36.8297 24.5359H29.8087C29.8087 24.3112 30.3342 20.8996 33.5402 20.8996Z" fill="white"/>
</g>
<defs>
<clipPath id="clip0_6114_2672">
<rect width="48" height="48" rx="12" fill="white"/>
</clipPath>
</defs>
</svg>
