<svg width="52" height="52" viewBox="0 0 52 52" fill="none" xmlns="http://www.w3.org/2000/svg">
<rect width="52" height="52" rx="26" fill="#FF9900"/>
<path d="M18.4219 38V35.4688L26.2969 27.2812C27.1302 26.4062 27.8177 25.6354 28.3594 24.9688C28.9115 24.2917 29.3229 23.651 29.5938 23.0469C29.875 22.4427 30.0156 21.8021 30.0156 21.125C30.0156 20.3438 29.8333 19.6719 29.4688 19.1094C29.1042 18.5469 28.6094 18.1146 27.9844 17.8125C27.3594 17.5104 26.651 17.3594 25.8594 17.3594C25.026 17.3594 24.3021 17.5312 23.6875 17.875C23.0729 18.2083 22.5938 18.6875 22.25 19.3125C21.9167 19.9271 21.75 20.651 21.75 21.4844H18.4062C18.4062 20.0677 18.7292 18.8281 19.375 17.7656C20.0312 16.7031 20.9271 15.8802 22.0625 15.2969C23.2083 14.7031 24.5 14.4062 25.9375 14.4062C27.4062 14.4062 28.6979 14.6979 29.8125 15.2812C30.9271 15.8646 31.7969 16.6562 32.4219 17.6562C33.0469 18.6458 33.3594 19.7656 33.3594 21.0156C33.3594 21.8802 33.1979 22.724 32.875 23.5469C32.5625 24.3698 32.0052 25.2917 31.2031 26.3125C30.4115 27.3229 29.3073 28.5417 27.8906 29.9688L23.2656 34.8125V35H33.7344V38H18.4219Z" fill="white"/>
</svg>
