<svg width="52" height="52" viewBox="0 0 52 52" fill="none" xmlns="http://www.w3.org/2000/svg">
<rect width="52" height="52" rx="26" fill="#FF9900"/>
<path d="M26.0312 38.3125C24.4583 38.3125 23.0625 38.0469 21.8438 37.5156C20.625 36.974 19.6615 36.224 18.9531 35.2656C18.2448 34.3073 17.8698 33.1979 17.8281 31.9375H21.3594C21.4115 32.625 21.6458 33.2188 22.0625 33.7188C22.4792 34.2188 23.026 34.6094 23.7031 34.8906C24.3906 35.1615 25.1562 35.2969 26 35.2969C26.9167 35.2969 27.7292 35.1354 28.4375 34.8125C29.1458 34.4896 29.6979 34.0469 30.0938 33.4844C30.5 32.9115 30.7031 32.25 30.7031 31.5C30.7031 30.7188 30.5052 30.0312 30.1094 29.4375C29.7135 28.8333 29.1354 28.3646 28.375 28.0312C27.6146 27.6979 26.6979 27.5312 25.625 27.5312H23.6406V24.6562H25.625C26.4792 24.6562 27.2344 24.5 27.8906 24.1875C28.5469 23.875 29.0573 23.4427 29.4219 22.8906C29.7969 22.3385 29.9844 21.6875 29.9844 20.9375C29.9844 20.2188 29.8229 19.5938 29.5 19.0625C29.1771 18.5208 28.724 18.1042 28.1406 17.8125C27.5573 17.5104 26.8698 17.3594 26.0781 17.3594C25.3177 17.3594 24.6094 17.4948 23.9531 17.7656C23.2969 18.0365 22.7604 18.4271 22.3438 18.9375C21.9375 19.4375 21.724 20.0469 21.7031 20.7656H18.3125C18.3438 19.5052 18.7083 18.401 19.4062 17.4531C20.1146 16.4948 21.0521 15.75 22.2188 15.2188C23.3958 14.6771 24.6979 14.4062 26.125 14.4062C27.6146 14.4062 28.901 14.6979 29.9844 15.2812C31.0781 15.8542 31.9219 16.625 32.5156 17.5938C33.1094 18.5521 33.4062 19.599 33.4062 20.7344C33.4062 22.0573 33.0417 23.1719 32.3125 24.0781C31.5833 24.974 30.6094 25.5833 29.3906 25.9062V26.0781C30.9323 26.3177 32.125 26.9323 32.9688 27.9219C33.8229 28.9115 34.25 30.1406 34.25 31.6094C34.25 32.8906 33.8906 34.0365 33.1719 35.0469C32.4635 36.0573 31.4896 36.8542 30.25 37.4375C29.0208 38.0208 27.6146 38.3125 26.0312 38.3125Z" fill="white"/>
</svg>
