<svg width="32" height="32" viewBox="0 0 32 32" fill="none" xmlns="http://www.w3.org/2000/svg">
<circle cx="16.0005" cy="16" r="12" fill="#FF9900" stroke="#FF9900" stroke-linecap="round" stroke-linejoin="round"/>
<path fill-rule="evenodd" clip-rule="evenodd" d="M16 15.5C18.2091 15.5 20 17.2909 20 19.5C20 20.2364 19.403 20.8333 18.6667 20.8333H13.3333C12.597 20.8333 12 20.2364 12 19.5C12 17.2909 13.7909 15.5 16 15.5Z" fill="white" stroke="white" stroke-width="1.5" stroke-linecap="round" stroke-linejoin="round"/>
<path d="M11.9998 12.5003C11.8159 12.5011 11.6673 12.6506 11.6678 12.8346C11.6683 13.0185 11.8177 13.1672 12.0016 13.167C12.1855 13.1668 12.3345 13.0176 12.3345 12.8337C12.3348 12.7449 12.2996 12.6597 12.2368 12.5971C12.1739 12.5345 12.0885 12.4996 11.9998 12.5003" stroke="white" stroke-width="1.5" stroke-linecap="round" stroke-linejoin="round"/>
<path d="M19.9998 12.5003C19.8159 12.5011 19.6673 12.6506 19.6678 12.8346C19.6683 13.0185 19.8177 13.1672 20.0016 13.167C20.1855 13.1668 20.3345 13.0176 20.3345 12.8337C20.3348 12.7449 20.2996 12.6597 20.2368 12.5971C20.1739 12.5345 20.0885 12.4996 19.9998 12.5003" stroke="white" stroke-width="1.5" stroke-linecap="round" stroke-linejoin="round"/>
<path d="M16.0003 11.1663C15.8164 11.1671 15.6678 11.3166 15.6683 11.5006C15.6688 11.6845 15.8181 11.8333 16.0021 11.833C16.186 11.8328 16.335 11.6836 16.335 11.4997C16.3353 11.4109 16.3001 11.3257 16.2373 11.2631C16.1744 11.2005 16.089 11.1656 16.0003 11.1663" stroke="white" stroke-width="1.5" stroke-linecap="round" stroke-linejoin="round"/>
</svg>
