<svg width="100" height="100" viewBox="0 0 100 100" fill="none" xmlns="http://www.w3.org/2000/svg">
<rect width="100" height="100" rx="50" fill="white" fill-opacity="0.12"/>
<path fill-rule="evenodd" clip-rule="evenodd" d="M43.9872 56.0236C40.38 52.4176 37.6607 48.38 35.854 44.284C35.4717 43.4179 35.6967 42.4039 36.3658 41.7351L38.8908 39.2109C40.9596 37.1428 40.9596 34.2179 39.1529 32.4118L35.5333 28.7965C33.1254 26.3894 29.2223 26.3894 26.8144 28.7965L24.8042 30.803C22.5196 33.0868 21.5669 36.3815 22.1836 39.6485C23.7066 47.702 28.3867 56.5198 35.9372 64.0678C43.4877 71.6158 52.3084 76.2944 60.3645 77.8169C63.6326 78.4333 66.9284 77.481 69.213 75.1972L71.2201 73.1907C73.628 70.7836 73.628 66.8817 71.2201 64.4746L67.6036 60.8594C65.7969 59.0533 62.868 59.0533 61.0644 60.8594L58.2804 63.6455C57.6113 64.3144 56.597 64.5393 55.7307 64.1572C51.6332 62.348 47.5944 59.6265 43.9872 56.0236Z" fill="#FF9900" stroke="#FF9900" stroke-width="1.5" stroke-linecap="round" stroke-linejoin="round"/>
<path d="M52.8418 29.2121V22" stroke="#FF9900" stroke-width="2" stroke-linecap="round" stroke-linejoin="round"/>
<path d="M65.6982 34.2978L70.7853 29.2432" stroke="#FF9900" stroke-width="2" stroke-linecap="round" stroke-linejoin="round"/>
<path d="M70.8164 47.1807H78" stroke="#FF9900" stroke-width="2" stroke-linecap="round" stroke-linejoin="round"/>
</svg>
