<svg width="52" height="52" viewBox="0 0 52 52" fill="none" xmlns="http://www.w3.org/2000/svg">
<rect width="52" height="52" rx="26" fill="#F5F5F5"/>
<path d="M36.6709 24.1606V36.6712" stroke="#FF9900" stroke-width="1.5" stroke-linecap="round" stroke-linejoin="round"/>
<path d="M16.6628 36.6713H12.6611" stroke="#FF9900" stroke-width="1.5" stroke-linecap="round" stroke-linejoin="round"/>
<path fill-rule="evenodd" clip-rule="evenodd" d="M25.9997 32.6694V32.6694C28.2098 32.6694 30.0014 34.461 30.0014 36.6711V36.6711C30.0014 37.4078 29.4042 38.005 28.6675 38.005H23.3319C22.5952 38.005 21.998 37.4078 21.998 36.6711V36.6711C21.998 34.461 23.7897 32.6694 25.9997 32.6694Z" stroke="#FF9900" stroke-width="1.5" stroke-linecap="round" stroke-linejoin="round"/>
<path d="M15.3291 24.1582V36.6714" stroke="#FF9900" stroke-width="1.5" stroke-linecap="round" stroke-linejoin="round"/>
<path d="M35.0039 24.6662V24.6662C36.6614 24.6662 38.0051 23.3225 38.0051 21.665V21.4956C38.0051 20.9518 37.8572 20.4183 37.577 19.9523L34.7758 15.2903C34.2946 14.4884 33.4287 13.997 32.4935 13.9951H19.5068C18.5703 13.9951 17.7024 14.4862 17.22 15.2889L14.418 19.9523C14.1396 20.4188 13.9934 20.9523 13.9951 21.4956V21.665C13.9951 23.3225 15.3389 24.6662 16.9964 24.6662V24.6662" stroke="#FF9900" stroke-width="1.5" stroke-linecap="round" stroke-linejoin="round"/>
<path d="M39.3386 36.6713H35.3369" stroke="#FF9900" stroke-width="1.5" stroke-linecap="round" stroke-linejoin="round"/>
<path d="M35.0036 24.6662C33.6754 24.6662 32.5051 23.7935 32.1261 22.5206C32.1137 22.4622 32.0621 22.4204 32.0023 22.4204C31.9426 22.4204 31.891 22.4622 31.8786 22.5206C31.4996 23.7936 30.3293 24.6662 29.0011 24.6662C27.6729 24.6662 26.5026 23.7936 26.1236 22.5206C26.1112 22.4622 26.0596 22.4204 25.9998 22.4204C25.9401 22.4204 25.8885 22.4622 25.8761 22.5206C25.4971 23.7936 24.3268 24.6662 22.9986 24.6662C21.6704 24.6662 20.5001 23.7936 20.1211 22.5206C20.1087 22.4622 20.0571 22.4204 19.9973 22.4204C19.9376 22.4204 19.886 22.4622 19.8736 22.5206C19.4946 23.7935 18.3243 24.6662 16.9961 24.6662" stroke="#FF9900" stroke-width="1.5" stroke-linecap="round" stroke-linejoin="round"/>
<path d="M26.3344 28.6683C26.3342 28.8524 26.1848 29.0015 26.0008 29.0014C25.8167 29.0013 25.6675 28.8521 25.6675 28.6681C25.6674 28.484 25.8164 28.3347 26.0005 28.3344C26.0891 28.3343 26.1741 28.3695 26.2367 28.4321C26.2994 28.4948 26.3345 28.5797 26.3344 28.6683" stroke="#FF9900" stroke-width="1.5" stroke-linecap="round" stroke-linejoin="round"/>
<path d="M30.3354 30.0023C30.3351 30.1864 30.1858 30.3355 30.0018 30.3354C29.8177 30.3353 29.6685 30.1861 29.6684 30.002C29.6684 29.818 29.8174 29.6687 30.0015 29.6684C30.0901 29.6683 30.1751 29.7035 30.2377 29.7661C30.3003 29.8287 30.3355 29.9137 30.3354 30.0023" stroke="#FF9900" stroke-width="1.5" stroke-linecap="round" stroke-linejoin="round"/>
<path d="M22.3324 30.0023C22.3322 30.1864 22.1829 30.3355 21.9988 30.3354C21.8148 30.3353 21.6656 30.1861 21.6655 30.002C21.6654 29.818 21.8145 29.6687 21.9985 29.6684C22.0871 29.6683 22.1721 29.7035 22.2348 29.7661C22.2974 29.8287 22.3326 29.9137 22.3324 30.0023" stroke="#FF9900" stroke-width="1.5" stroke-linecap="round" stroke-linejoin="round"/>
</svg>
