<svg width="52" height="52" viewBox="0 0 52 52" fill="none" xmlns="http://www.w3.org/2000/svg">
<rect width="52" height="52" rx="26" fill="#F5F5F5"/>
<path fill-rule="evenodd" clip-rule="evenodd" d="M25.2888 24.833V24.833C27.4988 24.833 29.2904 26.6246 29.2904 28.8347V28.8347C29.2904 29.5714 28.6932 30.1686 27.9566 30.1686H22.621C21.8843 30.1686 21.2871 29.5714 21.2871 28.8347V28.8347C21.2871 26.6246 23.0787 24.833 25.2888 24.833V24.833Z" stroke="#FF9900" stroke-width="1.5" stroke-linecap="round" stroke-linejoin="round"/>
<path d="M32.3322 18.2464C36.2218 22.1361 36.2218 28.4425 32.3321 32.3322C28.4424 36.2218 22.1361 36.2218 18.2464 32.3322C14.3567 28.4425 14.3567 22.1361 18.2463 18.2464C20.1142 16.3785 22.6476 15.3291 25.2892 15.3291C27.9309 15.3291 30.4643 16.3785 32.3322 18.2464" stroke="#FF9900" stroke-width="1.5" stroke-linecap="round" stroke-linejoin="round"/>
<path d="M36.6712 36.6712L32.332 32.332" stroke="#FF9900" stroke-width="1.5" stroke-linecap="round" stroke-linejoin="round"/>
<path d="M21.2857 21.8315C21.1017 21.8323 20.9531 21.9819 20.9536 22.1659C20.9541 22.3499 21.1035 22.4987 21.2875 22.4985C21.4715 22.4982 21.6205 22.349 21.6205 22.165C21.6209 22.0762 21.5857 21.991 21.5228 21.9283C21.4599 21.8657 21.3745 21.8308 21.2857 21.8315" stroke="#FF9900" stroke-width="1.5" stroke-linecap="round" stroke-linejoin="round"/>
<path d="M29.2896 21.8315C29.1056 21.8323 28.957 21.9819 28.9575 22.1659C28.958 22.3499 29.1074 22.4987 29.2914 22.4985C29.4754 22.4982 29.6244 22.349 29.6244 22.165C29.6248 22.0762 29.5896 21.991 29.5267 21.9283C29.4638 21.8657 29.3784 21.8308 29.2896 21.8315" stroke="#FF9900" stroke-width="1.5" stroke-linecap="round" stroke-linejoin="round"/>
<path d="M25.2877 20.498C25.1037 20.4988 24.9551 20.6484 24.9555 20.8324C24.956 21.0164 25.1055 21.1652 25.2895 21.165C25.4735 21.1647 25.6225 21.0155 25.6225 20.8315C25.6228 20.7427 25.5876 20.6575 25.5247 20.5948C25.4618 20.5322 25.3765 20.4973 25.2877 20.498" stroke="#FF9900" stroke-width="1.5" stroke-linecap="round" stroke-linejoin="round"/>
</svg>
