<svg width="24" height="25" viewBox="0 0 24 25" fill="none" xmlns="http://www.w3.org/2000/svg">
<path fill-rule="evenodd" clip-rule="evenodd" d="M9.70316 4.87356L3.52916 8.30356C2.23116 9.02456 2.23116 10.8906 3.52916 11.6116L9.70316 15.0416C11.1312 15.8346 12.8682 15.8346 14.2972 15.0416L20.4712 11.6116C21.7692 10.8906 21.7692 9.02456 20.4712 8.30356L14.2972 4.87356C12.8682 4.08056 11.1322 4.08056 9.70316 4.87356Z" stroke="#FF9900" stroke-width="1.419" stroke-linecap="round" stroke-linejoin="round"/>
<path d="M5.99121 12.9785V16.9025C5.99121 17.8515 6.46621 18.7365 7.25521 19.2615L8.86221 20.3305C10.7632 21.5945 13.2372 21.5945 15.1372 20.3305L16.7442 19.2615C17.5342 18.7365 18.0082 17.8505 18.0082 16.9025V12.9785" stroke="#FF9900" stroke-width="1.4167" stroke-linecap="round" stroke-linejoin="round"/>
</svg>
