<svg width="24" height="25" viewBox="0 0 24 25" fill="none" xmlns="http://www.w3.org/2000/svg">
<path d="M7.99983 22.3892H15.9998C20.0198 22.3892 20.7398 20.7792 20.9498 18.8192L21.6998 10.8192C21.9698 8.37916 21.2698 6.38916 16.9998 6.38916H6.99983C2.72983 6.38916 2.02983 8.37916 2.29983 10.8192L3.04983 18.8192C3.25983 20.7792 3.97983 22.3892 7.99983 22.3892Z" stroke="#FF9900" stroke-width="1.5" stroke-miterlimit="10" stroke-linecap="round" stroke-linejoin="round"/>
<path d="M8 6.38916V5.58916C8 3.81916 8 2.38916 11.2 2.38916H12.8C16 2.38916 16 3.81916 16 5.58916V6.38916" stroke="#FF9900" stroke-width="1.5" stroke-miterlimit="10" stroke-linecap="round" stroke-linejoin="round"/>
<path d="M14 13.3892V14.3892C14 14.3992 14 14.3992 14 14.4092C14 15.4992 13.99 16.3892 12 16.3892C10.02 16.3892 10 15.5092 10 14.4192V13.3892C10 12.3892 10 12.3892 11 12.3892H13C14 12.3892 14 12.3892 14 13.3892Z" stroke="#FF9900" stroke-width="1.5" stroke-miterlimit="10" stroke-linecap="round" stroke-linejoin="round"/>
<path d="M21.65 11.3892C19.34 13.0692 16.7 14.0692 14 14.4092" stroke="#FF9900" stroke-width="1.5" stroke-miterlimit="10" stroke-linecap="round" stroke-linejoin="round"/>
<path d="M2.62012 11.6592C4.87012 13.1992 7.41012 14.1292 10.0001 14.4192" stroke="#FF9900" stroke-width="1.5" stroke-miterlimit="10" stroke-linecap="round" stroke-linejoin="round"/>
</svg>
